<?xml version="1.0" encoding="UTF-8"?>
<svg width="250px" height="82px" viewBox="0 0 250 82" version="1.1" xmlns="http://www.w3.org/2000/svg" xmlns:xlink="http://www.w3.org/1999/xlink">
    <!-- Generator: Sketch 49.1 (51147) - http://www.bohemiancoding.com/sketch -->
    <title>dino-bodyshape//D</title>
    <desc>Created with Sketch.</desc>
    <defs></defs>
    <g id="dino-bodyshape//D" stroke="none" stroke-width="1" fill="none" fill-rule="evenodd">
        <path d="M29.9054015,31.1927086 C60.8252296,31.1927086 78.5785354,31.8501804 90.7401165,34.0949101 C105.793069,37.5946869 103.283824,42.522882 105.722081,45.4216717 C107.347586,47.3541982 110.14867,49.6236952 114.125333,52.2301629 C112.946565,55.6618716 112.357181,57.9704573 112.357181,59.1559199 C112.357181,60.9341138 113.547361,65.8097415 112.357181,67.8002269 C111.167001,69.7907123 110.589029,73.2409544 112.357181,74.8932898 C114.125333,76.5456252 112.59129,81 117.391782,81 C122.192273,81 122.811026,81 125.302649,81 C127.794273,81 126.080495,78.1691496 123.863257,77.0814085 C121.646019,75.9936673 119.058738,74.5804126 120.462888,70.6884021 C121.867038,66.7963915 124.301771,63.9542129 125.302649,62.3185575 C125.969902,61.2281206 126.54821,59.8143604 127.037573,58.0772769 L132.213142,58.6840768 C132.069488,61.8448611 132.369047,64.3837662 133.111818,66.300792 C134.225976,69.1763307 137.211745,72.7051712 137.562154,74.8932898 C137.912562,77.0814085 138.248873,82 141.441062,82 C144.63325,82 149.979996,82 151.417123,82 C152.854249,82 153.406797,80.32315 150.410958,78.5714925 C147.415119,76.819835 144.850745,75.6236736 145.641429,71.4046331 C146.168552,68.5919394 146.432113,64.509035 146.432113,59.1559199 C153.730773,60.714072 159.70374,61.3924781 164.351012,61.1911381 C168.998284,60.9897982 174.896318,60.1541111 182.045115,58.6840768 C179.960287,65.3394148 179.016048,70.3178186 179.212397,73.6192882 C179.506921,78.5714925 181.634292,82 185.27456,82 C188.914828,82 190.178764,82 192.092919,82 C194.007074,82 194.979256,80.3881011 192.092919,78.5714925 C189.206583,76.754884 186.781762,75.9847772 187.744629,72.3803711 C188.38654,69.9774337 190.189148,65.9760068 193.152451,60.3760904 C195.432303,69.9293161 197.150284,75.3993303 198.306396,76.7861328 C200.040565,78.8663366 200.601926,81 203.813498,81 C207.02507,81 207.577404,81 209.346815,81 C211.116225,81 211.668577,80.0563138 209.657506,78.0688611 C207.646434,76.0814085 205.416235,77.7483576 204.14676,71.7996469 C202.877286,65.8509362 204.14676,61.7441069 204.14676,60.0435005 C204.14676,58.9097628 204.14676,57.3310555 204.14676,55.3073785 C207.715117,54.2241865 210.295266,53.198448 211.887207,52.2301629 C214.275118,50.7777353 217.466048,49.3088804 223.096745,50.2265357 C228.727442,51.1441909 240.814511,51.3145295 243.503995,50.543962 C244.966354,50.1249794 246.066299,49.4665977 246.354542,49.1044414 C246.642785,48.7422851 246.325649,48.7385509 246.205742,48.7422851 C242.701324,48.851422 241.367766,48.1866563 242.205068,46.747988 C243.503995,44.5161474 245.555091,44.6700588 246.573087,45.4216717 C247.115838,45.8223988 247.626336,46.3620812 248.104579,47.0407187 C248.224339,47.2106599 248.438344,47.6108013 248.762249,47.2063515 C250.07493,45.5672476 250.320746,43.9430133 249.607693,42.3429397 C248.45779,39.7625873 245.521108,38.4638183 243.503995,36.9060032 C241.486882,35.348188 239.310424,32.7056645 236.897844,31.3305717 C234.485263,29.9554789 234.075848,30.5367498 232.210631,29.6559962 C230.636563,28.9127233 230.503775,24.9795181 229.54632,23.511295 C228.588865,22.043072 228.28261,27.4935756 225.795794,27.6687963 C223.668147,27.8187101 222.460371,24.5270087 221.314245,24.0191519 C220.168118,23.511295 221.567213,27.6920468 220.168118,27.2865453 C217.871313,26.6208593 216.276092,23.012796 213.290476,21.8292641 C212.026889,21.3283641 215.177634,25.0188521 212.230566,24.5620115 C209.283499,24.105171 206.237126,22.1899069 204.683952,20.4913223 C203.130778,18.7927377 200.179116,15.5896707 197.409458,14.6411755 C196.06119,14.1794487 197.567544,17.6708783 196.448101,17.6708783 C195.328657,17.6708783 191.786312,17.7883968 189.892547,15.5252179 C187.998782,13.262039 185.500488,11.3480039 184.639571,10.9684065 C183.778654,10.5888091 184.704769,13.9054844 181.612517,13.2269099 C178.520266,12.5483353 175.472696,8.24488362 173.331606,6.61061828 C169.635202,4.12503881 172.180067,8.06228767 169.813679,8.24488362 C167.447291,8.42747957 162.802494,5.09665145 159.41446,3.10085876 C156.026425,1.10506608 158.5655,5.12836881 155.762864,6.22268087 C152.960228,7.31699292 148.383524,6.51458166 146.432113,4.66575028 C144.480702,2.8169189 143.533064,1.72020593 141.939109,0.60302199 C140.345155,-0.514161949 139.597013,-0.0434561272 140.081971,1.72020593 C140.566929,3.48386798 140.432044,5.72910316 138.104086,5.40662229 C135.776129,5.08414141 133.8548,3.45240335 132.068775,2.29945841 C130.282751,1.14651346 128.794397,1.18518084 129.3623,2.84787808 C129.930203,4.51057531 129.122653,6.37292764 126.847894,6.22268087 C124.573136,6.07243409 122.330473,3.06800413 120.793535,2.29945841 C119.256598,1.53091269 117.872712,1.63870116 118.618588,3.06800413 C119.364464,4.4973071 118.135896,6.82556341 116.672967,6.61061828 C115.210037,6.39567315 111.535157,4.1100015 110.256494,3.77955969 C108.977831,3.44911789 109.588151,4.48833525 109.588151,5.91624822 C109.588151,7.34416118 107.744983,8.83550886 106.141967,8.54019624 C104.53895,8.24488362 101.877282,5.44604785 100.338834,5.21657086 C98.8003862,4.98709388 100.338834,6.57511 100.338834,7.7208522 C100.338834,8.8665944 99.2407879,10.7949087 97.8299669,11.168567 C96.419146,11.5422253 93.4031685,9.82354881 91.9150664,9.18187253 C90.4269644,8.54019624 89.7426363,9.02012663 90.4269644,9.99426655 C91.1112925,10.9684065 91.7091513,12.897479 89.129422,13.2269099 C86.5496926,13.5563408 84.6055816,13.027002 82.7977824,12.4031431 C80.9899832,11.7792841 80.1722382,12.2250962 81.3018767,13.8477361 C82.4315152,15.4703759 81.0147786,16.4198749 79.1959033,16.7918904 C77.377028,17.163906 76.2199509,16.0213229 75.0733206,15.5252179 C73.9266903,15.0291129 73.6733241,15.5675498 74.3005094,16.7918904 C74.9276948,18.016231 73.4330477,19.2635699 71.4395976,18.9699 C69.4461475,18.6762301 68.5794411,17.3165537 67.2630189,17.4948533 C65.9465967,17.6731528 68.4072577,19.4373203 67.4151897,19.7702894 C66.4231216,20.1032585 63.5351489,20.7657849 62.2817851,20.1032585 C61.0284212,19.4407322 60.1425833,19.0285329 59.4581293,19.3240982 C58.7736754,19.6196636 60.1999777,20.2744817 59.8629112,20.9692309 C59.5258447,21.66398 51.9189408,23.7719839 47.3959815,24.1669977 C42.8730222,24.5620115 28.8311437,26.4031347 25.7081809,26.0097636 C22.5852182,25.6163925 21.3575308,20.763763 11.2538427,20.763763 C1.1501545,20.763763 1.84170524e-16,24.02408 0,25.0169218 C0,26.0097636 4.02528902,33.1882485 15.432687,33.3360944 C26.840085,33.4839402 23.2391673,31.1927086 29.9054015,31.1927086 Z" id="Path-9" fill="#D8D8D8"></path>
    </g>
</svg>