<?xml version="1.0" encoding="UTF-8"?>
<svg width="250px" height="93px" viewBox="0 0 250 93" version="1.1" xmlns="http://www.w3.org/2000/svg" xmlns:xlink="http://www.w3.org/1999/xlink">
    <!-- Generator: Sketch 47.1 (45422) - http://www.bohemiancoding.com/sketch -->
    <title>dino-bodyshape/ceratopian/1</title>
    <desc>Created with Sketch.</desc>
    <defs></defs>
    <g id="Symbols" stroke="none" stroke-width="1" fill="none" fill-rule="evenodd">
        <g id="dino-bodyshape/ceratopian/1" fill="#D5D5D5">
            <path d="M155.931087,6.59531932 L155.133122,6.02465348 C155.133122,6.02465348 154.506035,4.94135561 153.592002,4.54317917 C152.679581,4.14339067 151.938038,4.59960093 151.938038,4.59960093 L148.515655,3.51630306 C148.515655,3.51630306 147.832146,1.68984996 146.576359,1.57700643 C145.322183,1.46255085 144.295307,2.71833811 144.295307,2.71833811 L141.216291,2.08963846 C141.216291,2.08963846 140.529558,0.379252985 139.389838,0.379252985 C138.248506,0.379252985 137.506963,1.68984996 137.506963,1.68984996 L135.2243,1.52058467 C135.2243,1.52058467 134.255457,0.379252985 133.17216,0.321219171 C132.088862,0.264797407 131.060374,1.29167351 131.060374,1.29167351 L129.122689,1.40451704 C129.122689,1.40451704 128.210268,0.435674749 127.068937,0.606552092 C125.927605,0.779041484 125.356939,1.80430554 125.356939,1.80430554 L123.417643,2.03321669 C123.417643,2.03321669 122.788943,1.17721793 121.421924,1.34809528 C120.051681,1.52058467 119.539049,2.83118164 119.539049,2.83118164 L117.999541,3.11651456 C117.999541,3.11651456 116.460033,2.31854962 115.375123,2.54746077 C114.291825,2.77475988 113.663126,4.14339067 113.663126,4.14339067 L111.380462,4.71405651 C111.380462,4.71405651 110.184321,3.51630306 109.328322,3.80163598 C108.475547,4.08535685 107.732392,5.28472235 107.732392,5.28472235 L105.67864,5.91180996 C105.67864,5.91180996 105.051552,4.88493385 103.795765,5.17026677 C102.54159,5.45559969 102.312679,6.65335314 102.312679,6.65335314 L100.486226,7.28044074 C100.486226,7.28044074 99.6318389,6.59531932 98.2648202,6.8822643 C96.8945774,7.16598517 96.8365436,8.30731685 96.8365436,8.30731685 L95.1825798,8.76513916 C95.1825798,8.76513916 94.3281931,8.13643951 92.9579503,8.47819419 C91.5893195,8.82156093 91.476476,10.0757361 91.476476,10.0757361 L89.9933896,10.646402 C89.9933896,10.646402 89.3066561,9.79040322 87.9960592,10.1321579 C86.6838501,10.4739126 86.3969052,11.7313119 86.3969052,11.7313119 L84.2303094,12.3567875 C84.2303094,12.3567875 83.2614671,11.7313119 82.0637137,12.1311004 C80.8659602,12.5292768 80.8079264,13.7270303 80.8079264,13.7270303 L79.2103845,14.2396623 C79.2103845,14.2396623 78.4688413,13.6125747 77.6144546,13.8962956 C76.7584558,14.1832406 76.2458238,15.4374158 76.2458238,15.4374158 L73.8503169,16.2353807 C73.8503169,16.2353807 73.2216173,15.4374158 72.3656185,15.7227487 C71.5112318,16.0080816 71.0550215,17.0929915 71.0550215,17.0929915 C71.0550215,17.0929915 70.237712,17.2622568 69.6090123,17.8345347 C68.9819247,18.4035885 68.5708519,18.5502851 68.5708519,18.5502851 C68.2113646,18.1504966 67.7325856,17.9763951 67.7325856,17.9763951 L67.3053923,16.4868606 C69.0077175,14.0413801 65.9238651,13.2950008 65.9238651,13.2950008 L65.3918885,12.2326596 L65.3918885,12.3390549 C66.4558417,8.08485389 62.3080361,9.25359043 62.3080361,9.25359043 L61.1376875,8.08646594 L61.1376875,7.97845857 C60.2865249,5.53297811 58.1618424,7.02251268 58.1618424,7.02251268 C58.1618424,7.02251268 55.5003472,5.42658279 55.6083546,7.44648194 C55.7131379,9.46799314 55.9259285,11.8070783 51.4589369,17.5508138 C46.9935573,23.2929374 40.5179508,23.3864363 40.5179508,23.3864363 C40.5179508,23.3864363 39.6055303,21.9420391 38.4255094,23.1962143 C38.0837547,22.5675147 36.716736,22.0161934 36.716736,22.0161934 C36.716736,22.0161934 36.942423,19.1257871 34.3212291,20.2848513 C34.3212291,20.2848513 26.4479749,17.6040115 22.1131714,14.6958726 C17.7783679,11.7877337 10.4193578,4.88493385 9.56335904,5.05581119 C8.70736028,5.22668854 8.53648294,7.68184129 13.6128296,13.6706085 C18.6907884,19.6593758 17.7783679,18.4600103 17.7783679,18.4600103 C17.7783679,18.4600103 10.7611125,15.0956611 8.42363941,12.471243 C6.08455428,9.84843703 5.1705217,13.7834521 10.9900236,18.5744658 C16.8079135,23.3654796 21.2007509,26.8458964 21.2007509,26.8458964 C21.2007509,26.8458964 20.4027859,27.7018952 21.2007509,28.6707375 C20.9718397,29.5267363 21.0879073,30.2698915 21.0879073,30.2698915 C21.0879073,30.2698915 19.2050325,31.8093996 16.9223691,31.9222431 C14.6413178,32.0350867 11.7299548,31.7497538 11.7299548,31.7497538 C11.7299548,31.7497538 11.0464454,31.182312 10.2484805,31.6369102 C9.45051551,30.9517888 8.36721765,31.5224546 8.36721765,31.5224546 C8.36721765,31.5224546 6.19739781,31.2371217 3.7470812,29.7556474 C1.29192844,28.270949 0.893751995,27.758317 0.208630575,28.1581055 C-0.474878794,28.5562819 0.493963496,32.492909 3.51655799,35.115715 C2.60413747,35.9136799 2.37683836,36.8857463 3.00392597,38.4236424 C2.09150544,40.649884 0.666452889,47.3818065 4.37255676,51.4876988 C4.88680083,51.4876988 4.83037907,48.1217376 5.79922136,47.7799829 C6.7696757,47.4382282 10.4193578,47.3237727 11.9024442,47.2093171 C13.3855305,47.0948615 16.3517033,47.2093171 17.2641238,48.5215261 C14.3559849,49.8337351 10.0195693,50.1754898 6.37149925,49.4339466 C8.42363941,52.6870643 11.5590774,54.5683272 16.9787909,53.8832057 C16.9787909,53.8832057 18.9180875,55.0809592 22.4549261,53.2561181 C25.4210988,54.1121169 26.4479749,52.8563296 28.3308498,52.9127514 C30.2137247,52.9707852 33.2927409,53.8832057 34.6049499,54.2265725 C35.917159,54.5683272 41.9059262,54.9100818 43.6743455,54.5683272 C45.4427648,54.2265725 48.5798149,53.826784 50.6899888,54.339416 C52.8017748,54.8536601 59.7867892,57.5570686 61.0715934,61.9821469 C61.5858375,63.7521783 61.8131366,64.8918979 61.8131366,64.8918979 C61.8131366,64.8918979 59.8738399,66.8311945 60.5025396,69.2267014 C58.9614194,71.3949092 58.563243,72.0219968 57.3638775,74.4175037 C56.166124,76.8146227 53.4852842,82.8614237 52.1746872,84.4009318 C50.8624782,85.94044 49.321358,86.7964387 48.2944819,86.7964387 C47.2692179,86.7964387 46.8113956,86.740017 46.2987635,87.6508254 C45.2992923,88.2472841 45.3283092,89.2483674 46.4116071,89.7045777 C46.1278862,90.7314538 47.2692179,91.4165752 49.1504807,90.8475214 C49.2069025,91.9308193 50.6335671,92.9560833 52.4584081,91.7583299 C52.6325096,91.9146987 53.1999513,91.7019081 53.1999513,91.7019081 C53.1999513,91.7019081 55.4245808,93.5267491 57.0221228,92.0436628 C58.6180527,90.5605764 58.6776986,88.6777015 61.1296272,85.655107 C63.5831679,82.6325126 66.433273,80.7496377 69.0576911,77.8963085 C71.6804971,75.0462034 73.5069502,72.9344174 73.6197937,72.1364524 L73.7358613,71.3368754 C73.7358613,71.3368754 75.1028801,66.716739 75.675158,66.0896514 C76.2458238,65.4625638 77.3291217,71.7930857 78.1835084,73.3342058 C79.0395071,74.873714 80.3517162,78.1832534 79.2684183,79.7227616 C78.1835084,81.2622697 78.297964,81.4347591 77.4435772,82.0038129 C76.5875785,82.5760908 74.3629489,82.0618467 73.3924946,83.8286539 C72.1367073,84.8571421 73.0507399,85.8259844 73.6197937,85.8259844 C73.6197937,85.8259844 73.7358613,86.7964387 74.9900365,86.8512484 C75.389825,88.277913 76.2458238,88.2231033 77.6144546,87.5379819 C78.2431542,87.5944037 78.812208,87.3654925 78.812208,87.3654925 C78.812208,87.3654925 80.0647712,89.2483674 81.9476461,87.6508254 C83.3178889,88.1650695 84.4576085,86.453072 85.6005523,84.6846527 C86.7402719,82.9178455 89.079357,78.8103411 89.4791455,78.3541308 C89.877322,77.8963085 89.0229353,74.075749 89.4211117,72.76354 C89.8209002,71.451331 90.7897425,66.3749843 90.4495999,62.6108466 C90.4495999,62.5544248 90.6752869,61.0713385 90.6752869,61.0713385 C90.6752869,61.0713385 95.8096674,60.6151282 98.9467175,60.67155 C102.08538,60.7279717 117.599753,60.4990606 117.599753,60.4990606 C117.599753,60.4990606 119.024805,68.4287365 119.595471,70.4824887 C120.166137,72.5346289 120.736803,76.3003786 119.651893,77.8963085 C118.568595,79.4954625 117.943119,80.4643048 116.859822,80.7496377 C115.774912,81.0349706 114.860879,80.7496377 114.462703,81.6620582 C112.750705,82.1198805 112.637862,83.0887228 112.579828,83.5449331 C112.523406,84.0027554 113.206915,83.6593887 113.206915,83.6593887 C113.206915,83.6593887 111.836673,85.94044 114.976947,85.7679506 C115.831333,86.3966502 117.085509,85.5422635 117.085509,85.5422635 C117.085509,85.5422635 117.51915,87.2639333 119.651893,87.0253499 C120.731967,86.9028341 121.078557,86.5111058 121.078557,86.5111058 C121.078557,86.5111058 123.590132,85.5986853 124.102764,84.7426865 C124.615396,83.8866878 125.471395,82.0618467 126.727182,80.8640933 C127.981357,79.6663398 129.408022,78.4105526 129.578899,77.6141997 C129.749777,76.8146227 130.49132,70.0262784 131.176441,68.4287365 C131.859951,66.8311945 133.059316,64.4937215 133.515526,62.8381457 C133.970124,61.184182 134.426335,58.1051657 134.426335,58.1051657 C134.426335,58.1051657 138.248506,63.4088115 140.872924,65.918774 C143.49573,68.4287365 147.317902,71.3368754 147.774112,74.4175037 C148.231934,77.498132 146.692426,83.7722322 145.551095,85.1988968 C143.041132,86.3966502 143.095942,87.3654925 142.926677,87.8797366 C141.8998,88.5084363 141.786957,89.9899106 142.241555,90.2752435 C142.697765,90.5605764 143.724641,90.6169982 143.724641,90.6169982 C143.724641,90.6169982 143.382887,92.2709619 145.721972,92.1000845 C148.059445,91.9308193 148.515655,91.3021196 148.515655,91.3021196 C148.515655,91.3021196 150.796707,93.2414162 153.022948,92.1000845 C155.245966,90.9603649 154.449613,90.1607879 154.960633,89.5901221 C155.474877,89.0210683 156.159998,88.4504024 156.67263,86.740017 C157.185262,85.0264074 157.701118,80.7496377 158.326594,79.8936389 C158.955294,79.0392522 159.866102,76.9290782 158.840838,74.361082 C160.265891,73.1052947 159.524347,70.3680331 158.383016,67.4598942 C157.241684,64.5501432 156.501753,61.6984261 155.931087,59.8155512 C155.360421,57.9342884 152.62316,53.5978728 152.62316,53.5978728 L152.679581,52.8563296 C152.679581,52.8563296 153.719354,51.77948 156.159998,51.5441206 C161.078364,51.0717898 155.955268,50.9218691 167.025218,51.3264938 C178.09678,51.7311185 209.517254,50.5398132 216.869816,49.0921919 C224.222378,47.6461827 248.335428,40.9336049 249.56381,37.6546944 C250.792193,34.3709477 242.00813,37.7530294 237.869997,37.6853233 C233.730251,37.6176172 213.321693,35.531624 203.528487,32.1833953 C193.735281,28.8335546 180.555157,24.5245439 173.74102,20.3847984 C166.926883,16.245053 160.31264,8.73934636 155.931087,6.59531932 Z" transform="translate(125.000000, 46.312274) scale(-1, 1) translate(-125.000000, -46.312274) "></path>
        </g>
    </g>
</svg>