<?xml version="1.0" encoding="UTF-8"?>
<svg width="250px" height="92px" viewBox="0 0 250 92" version="1.1" xmlns="http://www.w3.org/2000/svg" xmlns:xlink="http://www.w3.org/1999/xlink">
    <!-- Generator: Sketch 47.1 (45422) - http://www.bohemiancoding.com/sketch -->
    <title>dino-bodyshape/euornithopod/2</title>
    <desc>Created with Sketch.</desc>
    <defs></defs>
    <g id="Symbols" stroke="none" stroke-width="1" fill="none" fill-rule="evenodd">
        <g id="dino-bodyshape/euornithopod/2" fill="#D5D5D5">
            <path d="M63.8194458,17.6234234 C66.6134447,17.0263319 81.8717287,13.7796468 85.6100407,13.0787133 C89.8870331,12.2771829 88.9524551,12.8109957 91.4917166,12.4102305 C94.0326005,12.0094652 99.219833,10.8526004 104.994422,9.20248615 C110.610002,7.59780273 114.888617,5.59235409 118.497127,5.32463643 C122.105636,5.0585413 125.983486,3.45385788 131.999832,2.91842256 C138.014555,2.38298725 146.83788,2.11689212 151.116495,3.58852798 C156.597406,3.58852798 156.597406,5.19158886 161.275164,5.19158886 C165.954544,5.19158886 169.832394,6.2624595 173.708621,6.39550706 C177.58647,6.52855463 185.340547,7.86552039 190.2844,11.2079348 C195.233121,14.5487267 197.639334,20.9674603 199.242395,23.907487 C200.847079,26.8491362 203.52101,33.1331998 204.189493,33.9347302 C205.393411,34.7362606 205.393411,34.7362606 207.12952,34.7362606 C208.868873,34.7362606 210.872699,34.8709307 211.541182,33.9347302 C212.209665,32.9985297 213.278913,29.7891628 213.278913,29.7891628 C213.278913,29.7891628 213.145866,28.4521971 213.413583,27.9183843 C213.814349,26.1790308 214.348161,24.5759699 214.348161,24.5759699 C214.348161,24.5759699 214.215114,21.9036609 214.883597,21.2335555 C215.285984,18.5612465 215.819797,14.5487267 215.151314,13.0787133 C214.482831,11.6087 212.7451,8.13323805 211.541182,7.46313263 C209.535734,6.92931985 205.794176,5.0585413 200.446313,4.65777608 C195.09845,4.25538832 194.429968,4.12234076 193.761485,5.19158886 C193.093002,6.2624595 192.424519,9.47020381 189.082104,7.46313263 C185.741313,5.45930652 187.878186,2.6507049 191.756036,1.44840924 C195.633886,0.24449104 202.451762,-0.0216040869 206.863425,0.779926357 C211.273465,1.58307933 220.364507,3.8546231 226.648571,6.92931985 C232.932634,10.0040166 237.342674,12.6795706 240.284324,15.2188321 C243.22435,17.7580935 245.899904,20.6997427 247.235248,21.3682256 C248.572213,22.0367084 249.909179,22.8382389 249.641461,24.5759699 C249.373744,26.3137009 248.306118,27.5176191 248.306118,27.5176191 L248.114659,26.9902964 C248.114659,26.9902964 244.561316,30.189928 240.284324,27.7837142 C235.069508,27.3845715 232.397199,28.0530544 232.397199,28.0530544 C232.397199,28.0530544 229.723268,30.3245981 228.519349,32.0623291 C227.317054,33.8016826 225.579323,33.6670125 225.579323,33.6670125 C225.579323,33.6670125 223.440827,37.2771446 222.905391,38.7471579 C222.369956,40.2187938 220.630602,47.3027653 217.958293,49.442884 C215.285984,51.5813802 211.275087,53.0513936 207.664955,53.7198764 C204.054823,55.1898898 199.242395,56.393808 199.242395,56.393808 L199.242395,65.6178982 L200.125052,66.6822787 C200.125052,66.6822787 202.480968,67.2209591 204.165155,69.0381941 C205.84772,70.8570516 207.329091,71.4638783 208.406452,71.9360349 C209.483813,72.406569 210.830514,73.2145896 212.177214,77.1865461 C213.523915,81.1601252 213.389245,81.361319 213.322722,82.70802 C213.254575,84.0547209 213.254575,85.6707621 212.985235,85.7372859 C212.850565,86.3441126 212.042544,87.9617762 211.166378,86.8827929 C210.358357,87.5561434 208.945132,88.4306878 208.945132,86.6815991 C207.598431,87.1537557 207.463761,86.3441126 207.664955,85.8038096 C207.867771,85.2651293 208.000819,84.7945952 208.000819,84.7945952 C208.000819,84.7945952 207.531907,83.5825643 208.137112,82.70802 C208.742316,81.8318531 207.463761,77.5224101 206.856934,76.716012 C206.25173,75.9079915 206.3864,74.9653008 202.683784,74.2254266 C198.979545,73.4839298 196.62363,72.0041812 196.62363,72.0041812 C196.62363,72.0041812 197.29698,74.2254266 197.16231,75.0983484 C197.632844,76.0426616 198.509011,78.5332471 198.844875,81.8318531 C199.114215,83.2467004 200.595586,86.2094425 200.595586,86.2094425 C200.595586,86.2094425 202.008811,87.6226672 202.008811,88.0283 C202.750308,88.6335042 203.086172,89.9802051 202.549114,90.5188855 C201.739471,90.4507392 201.470131,90.3160691 201.470131,90.3160691 C201.470131,90.3160691 201.672947,91.5962463 200.864927,91.66277 C200.056906,91.7309164 198.645304,90.7217019 198.645304,90.7217019 C198.645304,90.7217019 198.778351,91.2603823 198.036855,91.3269061 C197.29698,91.3950524 196.286143,90.3160691 196.286143,90.3160691 C196.286143,90.3160691 194.738248,89.9120588 194.804772,88.4988341 C194.535432,87.4879971 194.334238,87.1537557 194.334238,87.1537557 C194.334238,87.1537557 193.863704,87.9617762 193.526218,87.9617762 C193.188731,87.9617762 192.24604,86.3441126 192.517003,85.3332756 C192.784721,84.3224386 192.921013,83.5825643 192.921013,83.5825643 C192.921013,83.5825643 193.255255,79.2065975 193.054061,78.3304306 C192.851245,77.4558863 190.967486,73.417406 190.227612,71.4638783 C189.486115,69.5103507 189.351445,66.6157549 189.351445,66.6157549 C189.351445,66.6157549 188.4769,63.7211591 188.947434,60.8249408 C189.417968,57.9303451 190.024795,56.0465863 190.024795,56.0465863 C190.024795,56.0465863 181.057065,57.8816691 173.192656,57.3251409 C163.699225,56.6517904 159.590976,59.2105222 156.02303,58.1331615 C156.02303,58.1331615 154.676329,59.952019 153.060288,61.4982913 C151.444247,63.0461861 149.828206,64.6638498 149.088331,66.0770745 C148.346835,67.4902993 147.20295,69.0381941 146.394929,69.3091568 C145.452239,70.5909565 144.441402,71.1296369 144.509548,74.0226101 C144.576072,76.9172059 145.317569,82.1011933 145.990919,83.2467004 C146.66427,84.3905849 149.289525,85.6691396 150.097546,85.8038096 L150.905566,85.9401023 C150.905566,85.9401023 153.801785,84.9957891 154.406989,86.6815991 C155.75369,87.017463 156.225846,89.1721846 156.225846,89.1721846 L154.877523,89.7790112 L155.080339,90.6535556 C155.080339,90.6535556 153.060288,91.5962463 151.781733,91.3950524 C150.83742,92.203073 148.953661,91.5962463 147.675107,91.1240897 C146.394929,90.6535556 144.642596,90.6535556 143.635004,90.4507392 C142.624167,90.2479228 141.210942,89.6427186 140.738785,87.4879971 C140.268251,85.3332756 139.257414,81.226649 138.650588,78.6679172 C138.045384,76.1091853 137.10107,74.4266204 138.515918,71.4638783 C139.930765,68.5011363 141.816146,64.258217 142.018963,62.9796624 C139.862619,64.5291797 138.988074,65.0662376 137.84419,66.0105508 C136.698683,66.9516189 135.554798,68.0289797 135.016118,68.7704764 C134.477437,69.5103507 133.938757,70.1187999 133.534747,70.6574803 C133.130736,71.1961607 133.19726,72.0041812 132.592056,72.8122018 C131.986852,73.6185999 132.525532,72.6759092 131.918706,74.3584741 C131.311879,76.0426616 130.101471,78.7360635 130.101471,79.6089853 L130.101471,80.4867747 C130.101471,80.4867747 130.302664,80.6198223 130.976015,81.7653293 C131.649365,82.9108364 133.19726,84.7280714 133.870611,84.8627415 C134.543961,84.9957891 136.228149,84.9292653 136.429342,85.1304592 C137.440179,85.4679457 138.045384,86.2094425 138.045384,86.6815991 C138.515918,87.2202794 138.92155,88.0948238 138.78688,88.8346981 C138.650588,89.5761948 136.968023,89.3068546 136.968023,89.3068546 C136.968023,89.3068546 137.440179,90.5188855 137.10107,90.9228958 C136.765206,91.3269061 134.005281,90.7882257 134.005281,90.7882257 C134.005281,90.7882257 132.861396,91.3269061 131.918706,90.5870318 C130.976015,89.845535 130.573627,88.7681743 129.42812,88.2294939 C128.282613,87.6908135 125.386395,87.2202794 125.454541,82.6414962 C125.522687,78.062713 126.059745,70.9933443 127.002436,69.2410105 C127.946749,67.4902993 128.686623,66.6157549 130.034947,65.3372003 C131.381648,64.0570231 131.986852,63.1824788 132.726726,61.4317675 C133.4666,59.6810563 134.813301,56.5836441 135.554798,55.3732358 C136.294672,54.1595824 138.246577,51.5327043 138.515918,51.4661805 C137.910713,50.9940239 137.440179,50.3888198 135.890662,50.1860033 C134.342767,49.9848095 133.671039,49.9848095 131.918706,49.3130815 C130.167994,48.6381085 129.695838,48.0329044 127.406446,47.2248838 C125.118677,46.4168632 122.829285,45.002016 121.01205,42.7807707 C119.193193,40.5595254 116.837277,36.856909 112.999991,35.3739154 C109.161082,33.8925444 96.2343754,31.6047753 86.065972,31.536629 C75.8991911,31.4684827 52.6710335,32.4793197 47.7563863,32.6139898 C42.8401166,32.7486599 27.8252123,32.6821361 20.4865034,32.5458434 C13.1477945,32.4127959 -0.569084833,32.5085252 0.0182714841,30.2564518 C0.422281769,29.2472374 1.76898272,29.5165776 2.98101357,29.5165776 C4.19304443,29.5165776 11.9357636,29.8524415 22.9787114,27.2953323 C34.0200367,24.7349779 43.378797,22.716549 48.9684172,21.3033243 C54.5564149,19.8884771 59.6154673,18.5255508 63.8194458,17.6234234 Z" id="dinosaur/bodyshape/euornithopod/2"></path>
            <path d="M63.8194458,17.6234234 C66.6134447,17.0263319 81.8717287,13.7796468 85.6100407,13.0787133 C89.8870331,12.2771829 88.9524551,12.8109957 91.4917166,12.4102305 C94.0326005,12.0094652 99.219833,10.8526004 104.994422,9.20248615 C110.610002,7.59780273 114.888617,5.59235409 118.497127,5.32463643 C122.105636,5.0585413 125.983486,3.45385788 131.999832,2.91842256 C138.014555,2.38298725 146.83788,2.11689212 151.116495,3.58852798 C156.597406,3.58852798 156.597406,5.19158886 161.275164,5.19158886 C165.954544,5.19158886 169.832394,6.2624595 173.708621,6.39550706 C177.58647,6.52855463 185.340547,7.86552039 190.2844,11.2079348 C195.233121,14.5487267 197.639334,20.9674603 199.242395,23.907487 C200.847079,26.8491362 203.52101,33.1331998 204.189493,33.9347302 C205.393411,34.7362606 205.393411,34.7362606 207.12952,34.7362606 C208.868873,34.7362606 210.872699,34.8709307 211.541182,33.9347302 C212.209665,32.9985297 213.278913,29.7891628 213.278913,29.7891628 C213.278913,29.7891628 213.145866,28.4521971 213.413583,27.9183843 C213.814349,26.1790308 214.348161,24.5759699 214.348161,24.5759699 C214.348161,24.5759699 214.215114,21.9036609 214.883597,21.2335555 C215.285984,18.5612465 215.819797,14.5487267 215.151314,13.0787133 C214.482831,11.6087 212.7451,8.13323805 211.541182,7.46313263 C209.535734,6.92931985 205.794176,5.0585413 200.446313,4.65777608 C195.09845,4.25538832 194.429968,4.12234076 193.761485,5.19158886 C193.093002,6.2624595 192.424519,9.47020381 189.082104,7.46313263 C185.741313,5.45930652 187.878186,2.6507049 191.756036,1.44840924 C195.633886,0.24449104 202.451762,-0.0216040869 206.863425,0.779926357 C211.273465,1.58307933 220.364507,3.8546231 226.648571,6.92931985 C232.932634,10.0040166 237.342674,12.6795706 240.284324,15.2188321 C243.22435,17.7580935 245.899904,20.6997427 247.235248,21.3682256 C248.572213,22.0367084 249.909179,22.8382389 249.641461,24.5759699 C249.373744,26.3137009 248.306118,27.5176191 248.306118,27.5176191 L248.114659,26.9902964 C248.114659,26.9902964 244.561316,30.189928 240.284324,27.7837142 C235.069508,27.3845715 232.397199,28.0530544 232.397199,28.0530544 C232.397199,28.0530544 229.723268,30.3245981 228.519349,32.0623291 C227.317054,33.8016826 225.579323,33.6670125 225.579323,33.6670125 C225.579323,33.6670125 223.440827,37.2771446 222.905391,38.7471579 C222.369956,40.2187938 220.630602,47.3027653 217.958293,49.442884 C215.285984,51.5813802 211.275087,53.0513936 207.664955,53.7198764 C204.054823,55.1898898 199.242395,56.393808 199.242395,56.393808 L199.242395,65.6178982 L200.125052,66.6822787 C200.125052,66.6822787 202.480968,67.2209591 204.165155,69.0381941 C205.84772,70.8570516 207.329091,71.4638783 208.406452,71.9360349 C209.483813,72.406569 210.830514,73.2145896 212.177214,77.1865461 C213.523915,81.1601252 213.389245,81.361319 213.322722,82.70802 C213.254575,84.0547209 213.254575,85.6707621 212.985235,85.7372859 C212.850565,86.3441126 212.042544,87.9617762 211.166378,86.8827929 C210.358357,87.5561434 208.945132,88.4306878 208.945132,86.6815991 C207.598431,87.1537557 207.463761,86.3441126 207.664955,85.8038096 C207.867771,85.2651293 208.000819,84.7945952 208.000819,84.7945952 C208.000819,84.7945952 207.531907,83.5825643 208.137112,82.70802 C208.742316,81.8318531 207.463761,77.5224101 206.856934,76.716012 C206.25173,75.9079915 206.3864,74.9653008 202.683784,74.2254266 C198.979545,73.4839298 196.62363,72.0041812 196.62363,72.0041812 C196.62363,72.0041812 197.29698,74.2254266 197.16231,75.0983484 C197.632844,76.0426616 198.509011,78.5332471 198.844875,81.8318531 C199.114215,83.2467004 200.595586,86.2094425 200.595586,86.2094425 C200.595586,86.2094425 202.008811,87.6226672 202.008811,88.0283 C202.750308,88.6335042 203.086172,89.9802051 202.549114,90.5188855 C201.739471,90.4507392 201.470131,90.3160691 201.470131,90.3160691 C201.470131,90.3160691 201.672947,91.5962463 200.864927,91.66277 C200.056906,91.7309164 198.645304,90.7217019 198.645304,90.7217019 C198.645304,90.7217019 198.778351,91.2603823 198.036855,91.3269061 C197.29698,91.3950524 196.286143,90.3160691 196.286143,90.3160691 C196.286143,90.3160691 194.738248,89.9120588 194.804772,88.4988341 C194.535432,87.4879971 194.334238,87.1537557 194.334238,87.1537557 C194.334238,87.1537557 193.863704,87.9617762 193.526218,87.9617762 C193.188731,87.9617762 192.24604,86.3441126 192.517003,85.3332756 C192.784721,84.3224386 192.921013,83.5825643 192.921013,83.5825643 C192.921013,83.5825643 193.255255,79.2065975 193.054061,78.3304306 C192.851245,77.4558863 190.967486,73.417406 190.227612,71.4638783 C189.486115,69.5103507 189.351445,66.6157549 189.351445,66.6157549 C189.351445,66.6157549 188.4769,63.7211591 188.947434,60.8249408 C189.417968,57.9303451 190.024795,56.0465863 190.024795,56.0465863 C190.024795,56.0465863 181.057065,57.8816691 173.192656,57.3251409 C163.699225,56.6517904 159.590976,59.2105222 156.02303,58.1331615 C156.02303,58.1331615 154.676329,59.952019 153.060288,61.4982913 C151.444247,63.0461861 149.828206,64.6638498 149.088331,66.0770745 C148.346835,67.4902993 147.20295,69.0381941 146.394929,69.3091568 C145.452239,70.5909565 144.441402,71.1296369 144.509548,74.0226101 C144.576072,76.9172059 145.317569,82.1011933 145.990919,83.2467004 C146.66427,84.3905849 149.289525,85.6691396 150.097546,85.8038096 L150.905566,85.9401023 C150.905566,85.9401023 153.801785,84.9957891 154.406989,86.6815991 C155.75369,87.017463 156.225846,89.1721846 156.225846,89.1721846 L154.877523,89.7790112 L155.080339,90.6535556 C155.080339,90.6535556 153.060288,91.5962463 151.781733,91.3950524 C150.83742,92.203073 148.953661,91.5962463 147.675107,91.1240897 C146.394929,90.6535556 144.642596,90.6535556 143.635004,90.4507392 C142.624167,90.2479228 141.210942,89.6427186 140.738785,87.4879971 C140.268251,85.3332756 139.257414,81.226649 138.650588,78.6679172 C138.045384,76.1091853 137.10107,74.4266204 138.515918,71.4638783 C139.930765,68.5011363 141.816146,64.258217 142.018963,62.9796624 C139.862619,64.5291797 138.988074,65.0662376 137.84419,66.0105508 C136.698683,66.9516189 135.554798,68.0289797 135.016118,68.7704764 C134.477437,69.5103507 133.938757,70.1187999 133.534747,70.6574803 C133.130736,71.1961607 133.19726,72.0041812 132.592056,72.8122018 C131.986852,73.6185999 132.525532,72.6759092 131.918706,74.3584741 C131.311879,76.0426616 130.101471,78.7360635 130.101471,79.6089853 L130.101471,80.4867747 C130.101471,80.4867747 130.302664,80.6198223 130.976015,81.7653293 C131.649365,82.9108364 133.19726,84.7280714 133.870611,84.8627415 C134.543961,84.9957891 136.228149,84.9292653 136.429342,85.1304592 C137.440179,85.4679457 138.045384,86.2094425 138.045384,86.6815991 C138.515918,87.2202794 138.92155,88.0948238 138.78688,88.8346981 C138.650588,89.5761948 136.968023,89.3068546 136.968023,89.3068546 C136.968023,89.3068546 137.440179,90.5188855 137.10107,90.9228958 C136.765206,91.3269061 134.005281,90.7882257 134.005281,90.7882257 C134.005281,90.7882257 132.861396,91.3269061 131.918706,90.5870318 C130.976015,89.845535 130.573627,88.7681743 129.42812,88.2294939 C128.282613,87.6908135 125.386395,87.2202794 125.454541,82.6414962 C125.522687,78.062713 126.059745,70.9933443 127.002436,69.2410105 C127.946749,67.4902993 128.686623,66.6157549 130.034947,65.3372003 C131.381648,64.0570231 131.986852,63.1824788 132.726726,61.4317675 C133.4666,59.6810563 134.813301,56.5836441 135.554798,55.3732358 C136.294672,54.1595824 138.246577,51.5327043 138.515918,51.4661805 C137.910713,50.9940239 137.440179,50.3888198 135.890662,50.1860033 C134.342767,49.9848095 133.671039,49.9848095 131.918706,49.3130815 C130.167994,48.6381085 129.695838,48.0329044 127.406446,47.2248838 C125.118677,46.4168632 122.829285,45.002016 121.01205,42.7807707 C119.193193,40.5595254 116.837277,36.856909 112.999991,35.3739154 C109.161082,33.8925444 96.2343754,31.6047753 86.065972,31.536629 C75.8991911,31.4684827 52.6710335,32.4793197 47.7563863,32.6139898 C42.8401166,32.7486599 27.8252123,32.6821361 20.4865034,32.5458434 C13.1477945,32.4127959 -0.569084833,32.5085252 0.0182714841,30.2564518 C0.422281769,29.2472374 1.76898272,29.5165776 2.98101357,29.5165776 C4.19304443,29.5165776 11.9357636,29.8524415 22.9787114,27.2953323 C34.0200367,24.7349779 43.378797,22.716549 48.9684172,21.3033243 C54.5564149,19.8884771 59.6154673,18.5255508 63.8194458,17.6234234 Z" id="dinosaur/bodyshape/euornithopod/2"></path>
        </g>
    </g>
</svg>