<?xml version="1.0" encoding="UTF-8"?>
<svg width="80px" height="200px" viewBox="0 0 80 200" version="1.1" xmlns="http://www.w3.org/2000/svg" xmlns:xlink="http://www.w3.org/1999/xlink">
    <!-- Generator: Sketch 47.1 (45422) - http://www.bohemiancoding.com/sketch -->
    <title>scale/lookup-815x2000mm</title>
    <desc>Created with Sketch.</desc>
    <defs></defs>
    <g id="Symbols" stroke="none" stroke-width="1" fill="none" fill-rule="evenodd">
        <rect id="Rectangle-2-Copy" x="0" y="0" width="80" height="200"></rect>
        <g id="scale/lookup-815x2000mm" fill="#AAAAAA">
            <path d="M0.0802133809,185.796286 C0.326426695,187.103164 1.94114496,188.460514 3.11580893,188.721892 C4.16816845,188.956055 7.80348018,189.257364 12.0469319,185.796286 C16.2903837,182.335209 17.6406741,183.525044 20.6293298,182.740259 C23.6179854,181.955474 24.1850629,178.750897 24.1638949,178.192042 C24.142727,177.633188 25.0663168,178.175484 25.5557255,177.349143 C26.0451341,176.522803 26.8877129,169.224894 27.2388138,167.217316 C27.5899148,165.209739 28.5026819,151.211147 28.863969,147.644349 C29.225256,144.077552 29.1062064,139.48157 29.8023604,135.949799 C30.4985144,132.418029 32.8015204,125.598411 34.178231,122.942339 C35.5549416,120.286267 36.5821427,117.044592 36.9100067,119.518837 C37.2378708,121.993083 38.2965851,138.01995 38.9449919,141.666994 C39.5625222,150.119231 40.9109028,151.98813 40.9503738,155.532956 C40.9898448,159.077782 41.0990267,164.530515 41.3091143,170.939829 C41.5192019,177.349143 40.5874952,179.55224 41.5192019,180.683961 C42.1403398,181.438441 42.8238673,182.123874 43.5697845,182.740259 L44.223921,189.215489 C43.78783,191.27598 43.5697845,193.019097 43.5697845,194.44484 C43.5697845,196.583454 42.9223326,200.041028 47.4933301,199.999632 C52.0643275,199.958235 55.0291096,198.604247 55.0319744,193.909868 C55.0338843,190.780282 54.3810211,187.401043 53.0733848,183.77215 C54.1163956,183.505513 54.7692588,182.924156 55.0319744,182.028078 C55.4260479,180.683961 55.1831739,174.829521 55.4260479,169.599534 C55.6689219,164.369546 55.7204889,156.283828 55.1831739,152.4747 C54.6458588,148.665573 54.4787437,147.508696 53.9786715,142.655736 C53.4785993,137.802777 53.913417,134.177705 54.6697324,127.926494 C55.4260479,121.675284 58.3249388,111.89708 58.9227336,108.925119 C59.5205284,105.953159 60.0941313,103.374149 60.2758889,100.130245 C60.4576465,96.8863406 60.2758889,94.0544922 60.2758889,91.629923 C60.2758889,89.2053538 59.3432272,86.3932484 60.2758889,82.883132 C61.2085507,79.3730156 61.8967468,73.3338831 62.7434636,71.1373139 C63.3079415,69.6729344 64.2799101,67.1174881 65.6593696,63.4709751 C66.273929,66.2608962 66.7348485,68.5968341 67.0421282,70.4787889 C67.5030477,73.3017211 67.9101721,82.2134618 67.9528262,85.8605055 C67.9954804,89.5075492 67.7796631,98.3212117 66.9116192,101.746943 C66.0435753,105.172674 63.0144937,109.66389 62.7630252,110.031683 C62.5115567,110.399477 61.4741694,112.412388 60.7005854,113.644018 C59.9270014,114.875647 59.5636453,116.911247 58.7688138,117.770148 C57.9739823,118.629048 57.5193531,120.453396 57.6260644,121.385985 C57.7327758,122.318573 59.0015017,122.462138 59.5221052,121.776228 C60.0427088,121.090317 60.6594433,119.811161 60.8819452,119.022874 C61.1044471,118.234586 61.6323718,117.310486 62.1976985,117.081372 C62.7630252,116.852257 63.1714228,117.446299 63.1085557,118.378678 C63.0456886,119.311058 63.3283519,120.995742 63.0456886,121.385985 C62.7630252,121.776228 62.1871941,121.319273 61.7434636,121.776228 C61.2997331,122.233183 61.4983614,122.771817 61.7434636,122.942339 C61.0498561,123.228613 59.7829641,122.464527 59.2758889,122.942339 C58.7688138,123.420152 58.7662673,124.04349 60.0108773,124.499012 C61.2554873,124.954534 61.2626494,125.5356 60.3923773,125.392065 C59.5221052,125.24853 59.4943323,125.525489 59.1270768,125.674517 C58.7598214,125.823545 58.6013007,125.590052 58.0664526,126.016756 C57.5316046,126.44346 57.8017741,127.438332 58.9954538,127.282299 C60.1891335,127.126266 61.7612096,127.104055 62.7630252,126.823592 C63.7648408,126.54313 64.8853877,126.358995 65.4013756,126.016756 C65.9173636,125.674517 67.6846462,122.22363 68.1892544,121.385985 C68.6938626,120.54834 69.3780798,119.335418 69.5876899,118.378678 C69.72743,117.740852 69.9962997,116.626592 70.3942991,115.0359 C70.7181662,114.997654 70.936017,114.832953 71.0478516,114.541797 C71.2156033,114.105062 73.5110764,109.426337 74.6229492,107.832248 C75.734822,106.238159 77.2571616,99.4790438 77.858617,98.0589799 C78.4600724,96.6389161 80.1706166,87.5230601 80,82.2099609 C79.8293834,76.8968618 79.3069483,70.9682245 79.2712971,63.4709751 C79.2543491,59.906919 78.6684407,56.6545146 78.298846,53.57288 C77.8909716,50.1720736 77.6721597,47.0456378 77.0973676,45.4328682 C76.0017288,42.3586902 75.4582214,39.8774395 72.7692589,37.6490267 C70.0802965,35.4206138 70.09096,34.461804 67.9116192,32.8097598 C65.7322784,31.1577155 63.6519334,29.9218667 63.1976985,29.5631489 C62.7434636,29.2044311 62.3279039,27.5606662 63.3902788,26.4106358 C64.4526538,25.2606054 65.4441241,23.9190359 67.3166892,22.2942179 C69.1892544,20.6693999 71.7648173,19.3572857 72.5485078,14.7898037 C73.3321983,10.2223216 72.7307429,6.22897912 69.5660593,3.55603011 C66.4013756,0.883081099 62.7781599,-0.260739827 58.6260644,0.0495757331 C54.473969,0.359891293 50.5443754,3.94897973 50.2790602,4.81846832 C50.013745,5.68795692 50.3430414,6.02979761 49.7949037,6.59772763 C49.246766,7.16565765 45.8100826,8.15774397 45.203375,8.41695061 C44.5966674,8.67615725 44.21278,9.61729387 44.5966674,9.87458989 C44.9805548,10.1318859 45.5987217,11.0672907 45.4010483,11.2503912 C45.203375,11.4334917 44.9694137,12.2088826 44.5966674,12.4857624 C44.223921,12.7626422 43.8139318,13.244913 44.0189264,13.6276727 C44.1555895,13.8828458 44.3481698,14.1463513 44.5966674,14.4181892 C43.9120788,14.4276362 43.5697845,14.5515076 43.5697845,14.7898037 C43.5697845,15.1472477 43.8613607,15.9293257 43.5697845,16.5396077 C43.2782083,17.1498896 42.4009334,17.7811884 42.4891065,18.8489032 C42.5772796,19.916618 42.8981407,20.4562072 44.5966674,21.5435058 C46.295194,22.6308044 47.9703245,23.7599773 48.215745,24.9689183 C48.4611656,26.1778593 48.2375496,27.6396383 46.819299,28.2846297 C45.4010483,28.9296212 41.7615985,29.2010876 38.9449919,29.3821182 C36.1283853,29.5631489 35.1985088,30.9026486 34.178231,32.2811566 C33.1579531,33.6596646 31.8284327,36.2739418 30.9619008,38.8991255 C30.0953689,41.5243092 28.8038075,47.1731191 27.7148533,49.297085 C26.6258991,51.4210509 24.1094631,54.8560165 22.3693965,57.3009656 C20.6293298,59.7459147 18.5875009,64.7450362 16.8192633,68.3162923 C15.0510258,71.8875483 13.9881734,75.0483408 12.0469319,77.8171389 C10.1056904,80.5859371 9.36298291,82.2004855 8.51769853,83.2404168 C7.67241415,84.2803481 7.20950516,85.5167327 7.04079843,85.6930664 C6.8720917,85.8694002 5.26953692,87.9531055 4.85206734,88.5390271 C4.43459776,89.1249488 1.97418517,91.9077581 1.21786971,93.2388192 C0.461554255,94.5698803 -0.0432926784,96.5161591 0.461554255,98.0589799 C0.966401188,99.6018007 1.16821264,100.591499 1.83635495,101.380742 C2.50449727,102.169984 3.20335694,101.653323 3.20335694,101.147487 C3.20335694,100.641652 2.7171712,100.167059 3.52378036,100.297304 C4.33038952,100.427549 4.53232034,99.7282197 4.16816845,98.8935998 C3.80401656,98.0589799 3.85076902,97.6950478 3.9018983,97.4487776 C3.95302758,97.2025074 4.46698627,97.2884054 4.49085986,96.888092 C4.51473345,96.4877785 4.41808519,95.8868108 5.96604902,95.1177887 C7.51401285,94.3487665 7.98631212,94.1991018 8.08467132,94.4415507 C8.18303053,94.6839997 7.76102497,95.7140196 7.04079843,96.4525118 C6.32057189,97.1910039 5.68338567,98.4462773 5.96604902,99.1675341 C6.24871237,99.8887909 6.94299627,99.8701624 7.62952126,99.5188482 C8.31604624,99.1675341 9.44112914,97.0382344 9.95075079,96.2579874 C10.4603724,95.4777404 11.6485612,93.8396277 12.1653449,92.90685 C12.6821287,91.9740723 12.5602938,90.7811327 14.0262916,88.5390271 C15.4922894,86.2969216 15.5016797,86.0354063 16.9520005,84.807598 C18.4023214,83.5797896 21.6917047,80.327845 22.5716854,79.5703661 C23.4516661,78.8128873 23.3957223,79.9864023 23.0778852,80.8218979 C22.760048,81.6573935 21.8118685,84.3928355 21.759824,86.7143907 C21.7077796,89.035946 21.2527489,89.7880911 20.9410393,90.6344931 C20.6293298,91.4808951 20.174697,94.4048112 19.8752027,95.9661013 C19.5757085,97.5273914 18.5010785,101.159429 17.8926201,104.906621 C17.2841618,108.653812 17.1222988,118.605325 16.8192633,122.311041 C16.5162279,126.016756 14.8904361,132.6317 14.9211535,138.360994 C14.9518708,144.090289 15.2437653,150.578575 14.9211535,154.797688 C14.5985416,159.016802 14.0209598,161.222128 13.643757,163.764996 C13.2665543,166.307864 13.23902,167.40583 12.7021825,168.502682 C12.1653449,169.599534 11.6285074,171.22069 12.1653449,171.398058 C12.7021825,171.575427 12.6111445,172.861589 11.6285074,173.904625 C10.6458703,174.947661 9.12854422,177.095668 8.08467132,177.736202 C7.04079843,178.376735 3.75038056,179.339844 2.35950497,180.683961 C0.96862939,182.028078 -0.341235131,183.559276 0.0802133809,185.796286 Z" id="scale/lookup-815x2000mm-copy"></path>
        </g>
    </g>
</svg>