<?xml version="1.0" encoding="utf-8"?>
<!-- Generator: Adobe Illustrator 16.0.0, SVG Export Plug-In . SVG Version: 6.00 Build 0)  -->
<!DOCTYPE svg PUBLIC "-//W3C//DTD SVG 1.1//EN" "http://www.w3.org/Graphics/SVG/1.1/DTD/svg11.dtd">
<svg version="1.1" id="Layer_1" xmlns="http://www.w3.org/2000/svg" xmlns:xlink="http://www.w3.org/1999/xlink" x="0px" y="0px"
	 width="80px" height="200px" viewBox="0 0 80 200" enable-background="new 0 0 80 200" xml:space="preserve">
<title>scale/lookup-815x2000mm</title>
<desc>Created with Sketch.</desc>
<rect id="Rectangle-2-Copy" fill="none" width="80" height="200"/>
<path fill="#AAAAAA" d="M59.688,72.25c0.75,2.562,9.188,20.375,9.562,22.5s-0.438,5,0,6.625s1.148,6.15,1.273,7.109
	c0.125,0.957,1.101,1.433,1.435-0.067c0,0,0.209-2.167,0.209-3.542s1-1.457,1.625-0.291s1.25,1.125,1.208,2.083
	s-0.166,2.917,0.417,3.125s0.542,0.501,0.542,1.126s-0.25,2.874,0.708,3.041s0.542-0.666,0.917-2.208s1-3.25,0.875-4
	s-0.958-3.083-1.042-3.875s-1.051-2.28-2.167-4.833c-1.749-3.999-1.166-4.082-1.541-5.54s-2.583-12.753-3.125-16.628
	c-0.838-5.988-2.334-11.293-2.959-16.168s-0.875-7.708-0.667-11s-0.208-13.251-2.25-16.001s-5.167-3.375-7.417-3.583
	s-7.208-1.458-8.208-3.333s0-3.167,0-3.167s0.774-0.051,1.375-0.917c1.416-2.042,2.041-1.083,4.208-4.208s2.5-10.457-0.708-13.832
	s-6.665-4.289-9.667-4.46c-1.525-0.087-2.871,0.07-3.708,0.418c-1.15,0.477-1.501,1.208-1.5,1.208c0,0-3.124,1.792-3.791,3.167
	S35.25,6.958,34.5,7.625s-1.803,1.25-2.844,1.875c-1.041,0.625-1.518,1.654-0.594,2.219c0.934,0.57,1.466,0.898,0.75,1.49
	c-1.083,0.896-0.156,1.604-0.156,1.604s-1.103,0.772-0.26,1.562c0.333,0.312-0.073,0.562-0.292,0.938s-0.698,1.812,0.365,2.625
	c1.063,0.813,3.861,1.56,4.312,1.812c1.562,0.875,2.938,3.469,2.875,6.219c-0.063,2.75,0.156,3.562-2.156,4.188
	c-2.312,0.626-6.781,1.25-8.25,3.844s-2.094,13.594-2.562,16.906c-0.468,3.312-1.062,9.406-2.375,13.656s-2.812,12.062-4.25,17.562
	s-1.391,5.455-1.766,6.268s-0.016,2.264-1.078,4.857c-0.671,1.639-1.094,2.938-1.812,4.531c-0.31,0.688-0.255,1.844-0.312,2.282
	c-0.156,1.188-0.375,3.28,0,4.219c0.375,0.938,0.281,2.125,0.281,2.906c0,0.78,0.312,0.655,0.312,0.655s0.125,0.875,0.75,0.345
	c0.625-0.531,0.469-1.812,0.469-1.812s0.25-0.219,0.281-0.531c0.031-0.312,0-1.094,0-1.094s0.688-0.094,0.719-1.156
	c0.031-1.062-0.062-2.253,0.062-3.25c0.281-2.261,1.75-1.469,1.75-1.469s0.188,0.688-0.094,1.594s-0.219,2.812,0.375,3.156
	s0.875-0.594,1.25-1.75s0.094-2.25,0.5-3.406c0.406-1.156,0.5-3.625,0.188-5.625c-0.275-1.76,0.375-3.031,1.781-5.5
	c0.686-1.203,2.475-4.159,3.781-7.062c1.374-3.054,2.25-6.031,2.25-6.031s-1.458,6.646-2.375,10.062s-2.47,6.03-0.167,19.479
	c1.499,8.756,1.792,10.146,2.667,13.771c0,0,0.75,6.75,1.375,9.562s1.688,8.5,2.125,11.188c0.437,2.688,1.75,17.125,2.125,23.25
	s1.188,8.938-1.812,10.688s-3.03,0.901-6.967,2.526s-10.158,2.849-7.97,5.035c2.188,2.188,6.125,3,11.75,1.625s9.5-1.188,12.75-1.75
	c3.25-0.562,3.112-2.936,2.625-5.312c-0.206-1.002-0.832-2.66-0.979-4.325c-0.371-4.162-0.153-10.095,0.604-15.675
	c1.062-7.812,0.75-11.062-0.312-16.312C43.127,134.814,44,131.875,43.75,127s-0.5-7.188-0.25-11.5s0.25-5.375,0.25-5.375
	s3.875,11.062,6.5,20.25s5.188,11.5,7.688,19.812c2.5,8.312,8.185,24.172,8.615,28.848c0.447,4.84,0.635,4.215-2.178,8.652
	c0,0-7.988,8.539-2,9.426c7.025,1.039,9.125-0.363,10.75-2.613s1.23-3.221,3.125-6c1.788-2.625-0.062-4.938-0.562-6.625
	s-2.75-7.438-3.312-28.312c-0.317-11.783-6.25-16.875-7.688-24.062c-1.438-7.187-2.875-14.75-2-22.125s-0.438-21.5-2.938-29.688
	s-3.75-8.812-3.438-12.25c0.189-2.099,0.848-4.15,1.33-5.431C57.951,59.19,58.938,69.688,59.688,72.25z"/>
</svg>
