<?xml version="1.0" encoding="UTF-8"?>
<svg width="80px" height="125px" viewBox="0 0 80 125" version="1.1" xmlns="http://www.w3.org/2000/svg" xmlns:xlink="http://www.w3.org/1999/xlink">
    <!-- Generator: Sketch 47.1 (45422) - http://www.bohemiancoding.com/sketch -->
    <title>crouchdown-f copy</title>
    <desc>Created with Sketch.</desc>
    <defs></defs>
    <g id="Symbols" stroke="none" stroke-width="1" fill="none" fill-rule="evenodd">
        <g id="crouchdown-f-copy">
            <rect id="Rectangle-2-Copy" x="0" y="0" width="80" height="125"></rect>
            <path d="M29.6800644,29.9221622 C29.6800644,29.9221622 29.0579265,29.798126 27.606603,30.7143931 C26.1552795,31.6306602 23.7383979,32.2768485 22.380644,31.005478 C21.7157029,30.3822963 21.8212175,29.1199283 21.7166984,28.8388464 C21.5305547,28.3387006 20.9502244,28.5677674 20.6804654,28.1926581 C20.3778574,27.770535 20.5032805,27.1813633 20.5032805,27.1813633 C20.5032805,27.1813633 19.8502844,27.0253178 19.7059484,26.4831598 C19.5616124,25.9410017 19.8353531,25.8569772 19.7059484,25.5038743 C19.4152856,24.7116434 18.4975076,25.2107889 18.2128173,25.1917834 C17.928127,25.1727778 17.0929689,25.2327953 16.8441137,24.3785463 C16.5952586,23.5242973 16.884926,23.1901999 17.154685,22.1699025 C17.424444,21.1496051 17.6314916,19.6271614 17.6732992,18.980973 C17.7151069,18.3347846 17.6732992,17.6675902 17.3000165,17.1884505 C16.9267337,16.7093108 16.0268733,15.9981035 16.156278,13.1882845 C16.2418842,11.333744 17.4861601,8.73998791 17.4861601,8.73998791 C17.4861601,8.73998791 16.6778785,7.52063249 17.7967314,5.6450858 C19.1823571,3.32440935 23.1431363,0.830682472 25.5729584,0.312531439 C28.6707078,-0.347660996 31.8998527,0.0594576724 34.4700291,1.33182855 C37.3696898,2.76824724 39.5745468,5.67609483 40.0692709,7.33357797 C41.0029756,10.4594891 41.3752629,11.8969081 41.5006859,14.0855461 C41.626109,16.274184 41.687825,19.3370768 41.687825,19.3370768 C41.687825,19.3370768 41.626109,21.8378057 43.1809562,23.5262979 C43.9225447,24.3305323 46.1303879,25.6569189 48.4795809,26.6402055 C51.0607069,27.7195201 53.8060774,28.4287269 54.8144386,28.5917744 C55.8875022,28.7658251 58.7234559,28.5557639 60.9741022,29.9041569 C62.766855,30.9784701 64.7089209,33.7212696 65.2046405,35.4677786 C65.5410927,36.6531242 66.4528981,41.4475216 66.6977716,43.0639928 C66.743561,43.3660809 66.6221196,43.6231558 66.6261013,43.6541648 C66.7256434,44.5284197 66.8132404,45.4306827 66.8849107,46.3459495 C67.2990058,51.6234878 67.2591889,57.6612477 67.2591889,57.6612477 C67.2591889,57.6612477 72.6075847,65.3925012 75.8427021,69.9768375 C79.0778196,74.5611738 79.7407698,79.3125587 79.989625,84.0639437 C80.0931488,86.0425204 79.4361711,91.6411523 77.3766455,94.4799798 C73.966334,99.1803499 69.6113682,99.3053863 69.6113682,99.3053863 C69.6113682,99.3053863 70.3011948,100.936862 71.6022097,102.868425 C73.2157867,105.265123 74.9617548,106.431463 75.5102316,108.440049 C75.7909402,109.470349 75.6346592,112.735301 73.9344805,114.860921 C72.2343019,116.98654 70.3270757,121.071731 69.6631301,121.987998 C68.9991844,122.904265 64.6024109,125.53003 59.3764519,124.904848 C54.1504929,124.279666 53.8608255,123.238362 54.3585359,121.44584 C54.8562463,119.653317 56.9287123,117.777771 57.7588932,117.027552 C58.5890741,116.277333 60.7969174,112.162134 61.4091011,110.734718 C62.0212849,109.307302 61.2816873,108.232989 59.9687273,106.5565 C58.1829424,104.278836 47.9619621,98.4291309 47.9619621,98.4291309 C47.9619621,98.4291309 49.2291327,99.8065324 50.5540377,101.318973 C51.8779474,102.833415 53.0435851,103.588635 53.9344866,104.869008 C54.6063957,105.833289 55.2295291,108.526074 53.653778,109.984499 C52.0780269,111.442924 47.5578213,112.694289 44.9866494,114.610848 C42.4154776,116.527406 39.0559326,118.028844 37.4383738,118.111868 C35.8208151,118.194892 30.7610914,118.695038 29.2261526,117.069564 C28.1879287,115.970244 28.7284422,114.902933 30.3878086,113.735592 C32.047175,112.568252 34.9587807,111.460929 36.028858,110.234572 C37.5986366,108.436048 38.94345,107.304718 40.2175886,106.024345 C41.4917272,104.743972 37.1168529,101.951158 34.5446857,100.159635 C31.9725184,98.3681131 24.9538067,94.6880404 22.2582073,92.9375302 C20.8815403,92.0432695 16.2199849,89.6005575 12.4284273,86.5176589 C8.79613691,83.5647982 6,80.0137631 6,77.0979132 C6,71.138176 9.33864123,69.2476249 11.765477,68.4713987 C15.5401126,67.2620462 23.9275279,69.3176454 23.9275279,69.3176454 C23.9275279,69.3176454 23.2635822,65.1704365 23.8767614,59.4677743 C24.1156624,57.247127 26.5315486,39.8790645 26.5315486,39.8790645 C26.5315486,39.8790645 26.8620283,35.4437716 27.4124959,33.4661952 C27.963959,31.4746147 29.6800644,29.9221622 29.6800644,29.9221622 Z M32.9052277,70.6710398 C32.9052277,70.6710398 34.6890217,70.5460034 36.3892003,70.420967 C38.089379,70.2959305 41.4976997,70.005846 41.4976997,70.005846 C41.4976997,70.005846 39.759695,65.724598 38.8887019,63.6399904 C38.0177087,61.5553828 36.4419576,60.0139335 35.8606319,59.8048725 C35.2793062,59.5958116 34.0768379,59.1386783 34.0768379,59.1386783 C34.0768379,59.1386783 32.8743696,65.1394275 32.832562,66.0566948 C32.7917497,66.9719616 32.9052277,70.6710398 32.9052277,70.6710398 Z" id="Shape" fill="#AAAAAA" fill-rule="nonzero"></path>
        </g>
    </g>
</svg>