<?xml version="1.0" encoding="UTF-8"?>
<svg width="250px" height="150px" viewBox="0 0 250 150" version="1.1" xmlns="http://www.w3.org/2000/svg" xmlns:xlink="http://www.w3.org/1999/xlink">
    <!-- Generator: Sketch 47.1 (45422) - http://www.bohemiancoding.com/sketch -->
    <title>dino-bodyshape/theropod/2</title>
    <desc>Created with Sketch.</desc>
    <defs></defs>
    <g id="Symbols" stroke="none" stroke-width="1" fill="none" fill-rule="evenodd">
        <g id="dino-bodyshape/theropod/2" fill="#D5D5D5">
            <path d="M220.272648,0 C220.134796,0.00486536047 219.990457,0.0405446706 219.828278,0.115146865 C218.93143,-0.303274136 217.677789,0.831976641 217.677789,0.831976641 L214.510439,1.25039764 C214.510439,1.25039764 213.19517,0.293543415 212.539968,0.533567865 C211.879901,0.771970528 212.178309,1.54880642 212.178309,1.54880642 L211.639876,1.66881864 C211.639876,1.66881864 209.491009,0.233537303 209.31099,2.20725187 L208.595782,2.86245374 C208.595782,2.86245374 205.785226,2.44565453 206.083635,4.29773508 L204.768365,5.1945832 C204.768365,5.1945832 202.916285,5.25458931 202.497864,6.98665764 L201.424241,8.60195732 C201.424241,8.60195732 200.347375,8.83873819 200.227362,9.67558019 C199.748935,10.2140134 199.092112,10.9908493 199.092112,10.9908493 C199.092112,10.9908493 196.761604,11.647673 197.240031,13.6197657 C196.584829,14.3966016 192.209248,21.7270781 191.443765,22.5850033 C190.428526,23.7202541 188.874855,26.2291583 185.887523,26.1107679 L182.89857,25.9907556 C182.89857,25.9907556 181.821704,25.0339014 181.583301,25.0339014 C181.344898,25.0339014 180.926477,25.5707129 180.926477,25.5707129 L179.072775,24.915511 C179.072775,24.915511 178.834372,23.8986506 177.87914,24.6754865 L176.325468,24.1970594 C176.325468,24.1970594 175.847041,22.9417964 174.891809,23.4802296 C174.471766,23.2434488 173.218125,22.7050155 173.218125,22.7050155 C173.218125,22.7050155 172.501295,21.6265273 172.141258,21.6265273 C171.782843,21.6265273 171.664453,22.1665823 171.664453,22.1665823 L170.049153,21.6265273 C170.049153,21.6265273 169.273939,20.5512826 168.855518,20.5512826 C168.437097,20.5512826 168.257079,21.0897159 168.257079,21.0897159 L166.641779,20.31288 C166.641779,20.31288 165.029723,18.5808116 164.551296,18.6992021 C164.072869,18.8192143 164.134497,20.0144712 164.134497,20.0144712 L163.177642,19.7160624 C163.177642,19.7160624 162.22241,18.0423784 161.50558,18.1623906 C160.787129,18.2824029 160.430335,19.2376353 160.430335,19.2376353 L159.353469,18.9408483 C159.353469,18.9408483 157.499767,16.9671338 156.784559,16.9671338 C156.067729,16.9671338 156.067729,18.2824029 156.067729,18.2824029 L154.214027,18.2824029 C154.214027,18.2824029 152.958764,16.4287005 152.123543,16.6087189 C151.286701,16.7871154 151.406714,17.9223662 151.406714,17.9223662 L149.793036,17.9223662 C149.793036,17.9223662 148.776175,16.0702856 147.700931,16.3103101 C147.28251,16.4870849 147.104113,17.6839635 147.104113,17.6839635 L145.668832,17.6839635 C145.668832,17.6839635 143.815129,15.8902673 143.159928,15.8902673 C142.501482,15.8902673 142.621494,17.0271399 142.621494,17.0271399 L140.531011,17.0855242 C140.531011,17.0855242 139.394139,15.4734681 138.49729,15.5334742 C137.602064,15.5934803 137.602064,16.7871154 137.602064,16.7871154 L136.466813,16.7871154 C136.466813,16.7871154 135.09316,15.4118402 134.134684,15.4734681 C133.179451,15.5334742 133.299464,17.0271399 133.299464,17.0271399 L131.92581,17.2071582 C131.92581,17.2071582 130.368895,15.7734987 129.295272,16.0119013 C128.220027,16.250304 128.818467,17.6839635 128.818467,17.6839635 L127.383185,18.2223968 C127.383185,18.2223968 125.531105,16.7271093 124.752647,17.0271399 C123.977433,17.3255486 124.515866,18.7592082 124.515866,18.7592082 L123.080585,19.4160319 C123.080585,19.4160319 121.110114,18.0423784 119.913235,18.5808116 C118.717978,19.1176231 119.616448,20.4928983 119.616448,20.4928983 L118.179545,21.2097281 C118.179545,21.2097281 117.1043,20.9113193 116.387471,21.0897159 C115.670641,21.2697342 115.133829,22.7050155 115.133829,22.7050155 L114.116969,23.1234365 C114.116969,23.1234365 111.608065,22.404985 111.009626,22.823406 C110.412808,23.2434488 110.949619,24.1370533 110.949619,24.1370533 L108.61749,25.0339014 C108.61749,25.0339014 107.187074,24.5570961 106.765409,24.6754865 C106.34861,24.793877 106.34861,25.630719 106.34861,25.630719 L103.959718,26.5275671 C103.959718,26.5275671 102.584443,25.5707129 101.507577,25.752353 C100.43071,25.9307495 100.670735,27.4244152 100.670735,27.4244152 L99.3554655,27.5444274 C99.3554655,27.5444274 97.14497,26.4091766 96.6065368,26.6475793 C96.0697254,26.885982 96.4881464,28.3212633 96.4881464,28.3212633 L95.2328834,28.559666 C95.2328834,28.559666 93.4408089,27.1860125 92.3655643,27.4844213 C91.2903196,27.7844519 92.123918,29.3365019 92.123918,29.3365019 L91.1086795,29.4565141 C91.1086795,29.4565141 89.438239,27.9028423 88.6597814,28.2596354 C87.8813237,28.6196721 88.4213787,30.3533622 88.4213787,30.3533622 L87.7029271,30.651771 C87.7029271,30.651771 85.9092309,29.1564835 84.5972054,29.5148984 C84.0587721,29.6965385 84.4755714,31.5469973 84.4755714,31.5469973 L83.7003573,31.8454061 C83.7003573,31.8454061 82.1466855,30.23335 81.3098435,30.5917649 C80.8930443,30.7117771 81.2498374,32.8022603 81.2498374,32.8022603 L80.354611,32.9222725 C80.354611,32.9222725 78.8577018,31.6086252 77.9040911,31.9670401 C77.2472675,32.1470584 77.7857007,33.5790962 77.7857007,33.5790962 L76.4104255,34.4159382 C76.4104255,34.4159382 74.7967476,33.2806874 73.9582838,33.6374805 C73.1214418,33.999139 73.8998995,35.1343898 73.8998995,35.1343898 L73.4831003,35.2527802 C73.4831003,35.2527802 72.0461971,34.3559321 71.2109769,34.6559626 C70.3741349,34.9527496 70.7341716,35.7895916 70.7341716,35.7895916 L69.6573051,36.4480371 C69.6573051,36.4480371 68.1636395,35.3744142 67.3851818,35.7312073 C66.6099677,36.091244 66.9067547,37.4048913 66.9067547,37.4048913 L66.1315406,37.6449158 C66.1315406,37.6449158 64.4594784,36.8664581 63.9210451,37.1648669 C63.3826119,37.4632756 63.3826119,38.3001176 63.3826119,38.3001176 L62.1289707,38.6001482 C62.1289707,38.6001482 61.5305314,38.0600932 60.8737077,38.1801054 C60.2152623,38.3001176 59.9168535,39.3153562 59.9168535,39.3153562 L58.6599687,39.6153868 C58.6599687,39.6153868 57.4663336,38.9569413 56.9262786,39.3153562 C56.3910889,39.6753929 55.9710461,40.6306253 55.9710461,40.6306253 C55.9710461,40.6306253 53.2237393,40.572241 52.685306,41.5274734 C51.6781764,41.9540034 51.1754225,41.827504 50.7488926,41.7026264 C50.516977,41.6361331 50.3077665,41.5663963 50.0563896,41.5874795 C49.3411816,41.6458639 48.8027484,42.8427425 48.8027484,42.8427425 C48.8027484,42.8427425 46.7706495,41.9458944 46.4706189,42.3059311 C46.1738319,42.6627242 45.8738014,43.2595417 45.8738014,43.2595417 C45.8738014,43.2595417 44.5569105,42.7211085 43.9017086,43.0811452 C43.2416414,43.4395601 43.0664884,44.0363776 43.0664884,44.0363776 C43.0664884,44.0363776 41.9296158,43.4395601 41.3911826,43.6795845 C40.8543711,43.919609 39.9559012,44.6932013 39.9559012,44.6932013 C39.9559012,44.6932013 38.8806566,43.797975 38.4638574,44.1563899 C38.0438146,44.5164265 37.6853997,45.1132441 37.6853997,45.1132441 C37.6853997,45.1132441 36.5517707,44.2780239 36.191734,44.4547986 C35.8333191,44.634817 35.4165199,45.1732502 35.4165199,45.1732502 C35.4165199,45.1732502 33.9828604,44.4547986 32.966,45.7100616 C31.7691214,45.053238 31.0539134,45.8884582 31.0539134,45.8884582 C31.0539134,45.8884582 29.0947949,44.6202209 28.5806885,45.912785 C28.5806885,45.912785 28.2822797,45.6906002 27.5022002,45.539774 C26.720499,45.3921914 26.3491098,46.2111938 26.3491098,46.2111938 C26.3491098,46.2111938 25.9760988,45.9517079 25.4555052,45.6516773 C24.9349117,45.3548903 24.7484062,46.0992905 24.7484062,46.0992905 L24.1175311,46.1349698 C23.00012,44.9478218 22.4406035,46.0619894 22.4406035,46.0619894 L21.8454078,46.0992905 C20.6582598,44.6850924 20.1733456,46.0246883 20.1733456,46.0246883 C20.1733456,46.0246883 19.9138597,45.9857654 19.8003346,45.9857654 C18.5369627,45.0564816 18.4623605,45.2802881 18.0179909,45.9517079 C15.8220915,46.2111938 8.68136413,44.7986174 7.00768012,44.4629076 C5.06964487,44.0753005 0.684333296,42.1567267 0.03886214,44.2780239 C-0.815819516,47.9773196 12.6482547,55.1521045 18.6245391,57.2425877 C24.5992018,59.3363145 31.3523221,61.3684134 40.8543711,62.3220241 C50.3531766,63.2788783 67.0883948,64.1157203 76.170401,64.4741352 C85.254029,64.8325501 94.0376265,66.6262463 97.9218059,67.4014604 C101.807607,68.1799181 105.871805,72.7809273 107.005434,74.274593 C108.140685,75.7682586 109.335942,77.6803453 111.306413,79.5340476 C110.769601,81.9229396 102.76284,90.1697256 101.267552,91.186586 C99.7738865,92.2018245 98.2218365,94.3555574 97.6233971,95.3091681 C97.0265796,96.2660223 96.5465307,98.9549449 96.011341,100.927038 C95.4729078,102.89913 94.2176448,103.734351 93.6775898,104.152772 C93.1440219,104.571193 92.123918,103.914369 91.6487345,105.229638 C90.4518558,105.171254 88.898184,106.184871 89.316605,107.740164 C89.7950321,106.723304 90.9302829,106.903322 91.4103318,107.261737 C91.3487039,108.216969 92.4255704,107.858555 93.2624124,107.50014 C94.0976326,107.141725 94.2760291,106.543285 94.7544562,106.78331 C95.2328834,107.021713 93.7992238,111.981137 93.7992238,111.981137 C93.7992238,111.981137 93.1440219,112.757973 92.663973,113.41804 C92.1839241,114.073242 93.1440219,116.942183 93.6775898,118.974281 C94.2176448,121.00638 96.011341,123.932084 96.4281403,124.592151 C96.848183,125.247353 99.6538742,126.084195 100.552344,126.265835 C101.449192,126.44261 101.507577,126.144201 101.507577,126.144201 C101.507577,126.144201 103.719694,127.101055 104.616542,126.981043 C105.511768,126.862653 104.374896,124.832175 104.374896,124.832175 C104.374896,124.832175 108.380709,125.487377 109.157545,125.487377 C109.932759,125.487377 110.889613,126.025811 111.428047,125.128962 C112.08487,124.832175 114.056963,125.128962 115.192214,125.487377 C116.327465,125.845792 114.833799,123.755309 113.220121,122.500046 C113.040103,121.42318 111.366419,120.347935 109.51596,120.10791 C109.395948,119.751117 108.260697,119.27269 107.005434,119.451087 C106.467001,118.195824 104.556536,117.779025 104.556536,117.779025 L102.882852,114.731687 C102.882852,114.731687 103.239645,113.53643 103.421285,112.937991 C103.599682,112.341173 103.959718,110.010666 104.256505,108.813787 C104.556536,107.620152 105.153353,106.244877 105.630159,105.289644 C106.108586,104.33279 109.335942,99.730159 110.172784,98.7165422 C111.009626,97.6996819 110.889613,97.6996819 111.548059,97.2212548 C112.204882,96.7444494 114.295366,95.6692048 116.805892,94.5907165 C119.314796,93.5170936 127.503198,88.257639 127.503198,88.257639 L128.398424,88.3176451 C128.398424,88.3176451 128.041631,93.4570875 128.460052,97.0428582 C128.876851,100.628629 133.062683,107.620152 134.256318,109.592245 C135.449953,111.564337 135.689977,111.682728 135.629971,117.897415 C135.571587,124.113724 138.138876,126.44261 141.126207,131.105247 C144.113538,135.766262 143.936763,139.410417 143.698361,140.605674 C143.456715,141.800931 143.578349,143.472993 144.711978,143.773024 C145.84885,144.073054 151.106683,146.641965 152.183549,147.357173 C153.258794,148.075624 154.214027,149.030857 154.692454,148.374033 C155.46929,148.374033 157.322992,149.450899 158.516627,149.450899 C159.713506,149.450899 157.739791,146.043525 157.739791,146.043525 C157.739791,146.043525 161.743983,146.761977 163.657691,147.240404 C165.568156,147.717209 165.746553,147.180398 165.746553,147.180398 C165.746553,147.180398 171.12602,148.015618 171.187647,147.357173 C171.544441,145.985141 166.463382,142.996188 166.463382,142.996188 L166.583395,142.577767 C166.583395,142.577767 168.495481,142.39937 168.735506,141.560907 C167.600255,139.290405 164.194503,139.352033 164.194503,139.352033 C164.194503,139.352033 163.716076,138.8136 160.490342,138.633581 C157.262986,138.453563 156.544534,137.139916 154.214027,134.150963 C151.883519,131.165253 148.776175,119.98952 148.357754,118.017427 C147.939333,116.046956 146.864089,113.774833 146.325655,112.459564 C146.744076,111.624344 146.507296,109.173824 146.507296,106.723304 C146.507296,104.272784 146.864089,103.017521 147.819321,98.5365239 C148.776175,94.0522833 147.79986,89.2939608 147.79986,89.2939608 C147.79986,89.2939608 147.760937,88.3987344 147.642546,88.3371065 C151.821891,87.9786916 159.05506,83.4182271 161.445574,81.5077622 C163.834466,79.592432 168.257079,76.8435033 168.257079,76.8435033 L169.033915,77.5603331 L169.453957,78.3987969 L169.512342,78.3987969 C171.247654,80.9077011 174.413381,83.2982149 174.413381,83.2982149 L174.413381,85.8087409 C174.413381,85.8087409 173.576539,86.5239489 172.919716,87.0039978 C172.26127,87.4808031 172.319655,87.839218 172.501295,88.4976634 C172.381283,89.0344749 171.664453,89.4528959 170.884373,89.8129325 C171.782843,91.0665738 173.454905,89.512902 173.454905,89.512902 C173.454905,89.512902 173.816564,89.512902 174.354997,89.3945115 C174.891809,89.2744993 175.130211,88.6160539 175.488626,88.0808642 C175.847041,87.5408092 176.983914,86.583955 176.983914,86.583955 C176.983914,86.583955 177.222316,87.0623821 177.222316,87.1223882 C177.042298,87.8992241 177.759128,88.3176451 177.759128,88.3176451 C177.759128,88.3176451 177.759128,89.3945115 177.640737,90.2297318 C178.297561,90.0497134 179.11332,89.7513046 179.473356,88.257639 C180.84701,87.7792119 180.149641,85.9871374 180.028007,84.8518866 C179.909617,83.7166359 180.566441,82.3429824 178.715982,80.7293045 C176.86228,79.1156266 176.622255,78.0387602 176.087065,76.7267347 C175.548632,75.4098438 174.591778,74.5146174 174.591778,74.5146174 L174.891809,73.7361598 L174.891809,73.7961659 C178.297561,73.7961659 184.035443,71.4656582 185.827517,70.7488284 C187.619592,70.0319986 189.830087,69.253541 191.263747,68.7767356 C191.323753,69.6735838 192.6374,73.2577326 193.417479,73.9761842 C193.235839,74.274593 193.295845,76.9035094 193.177455,77.2635461 C193.055821,77.6203392 191.800558,78.1587724 191.145356,78.5171873 C190.485289,78.877224 190.248508,80.010853 190.248508,80.010853 C190.248508,80.010853 189.591684,80.0692373 188.274793,80.1908713 C189.173263,81.9229396 191.623783,81.0877194 191.623783,81.0877194 C191.623783,81.0877194 191.623783,81.3261221 190.965338,82.4029885 C192.398997,82.5797633 192.879046,82.2813545 193.475864,81.3861282 C194.731127,81.3261221 194.731127,79.5340476 195.26956,78.5171873 C195.806371,77.500327 196.283177,77.500327 197.060013,75.2314472 C197.83847,72.9593239 196.343183,65.6110078 196.343183,65.6110078 C198.733697,64.2957386 201.424241,59.3963207 202.381095,56.8857946 C203.334706,54.3752686 204.709981,53.2400179 205.965244,52.3431698 C207.220507,51.4463216 208.057349,51.9263705 210.386235,51.9263705 C212.716743,51.9263705 215.525677,50.9678945 216.542538,49.8958934 C218.573015,50.1926804 219.351473,48.8174052 220.365089,48.0421911 C222.817231,48.697393 224.847708,48.8774113 224.847708,48.8774113 C227.656643,49.2958323 231.480816,57.2425877 236.978674,54.5536652 C244.388618,50.9678945 241.938098,48.0421911 241.938098,48.0421911 C241.461292,47.023709 240.026011,45.350025 239.190791,44.3964143 C238.352327,43.4395601 234.946575,37.2848791 234.946575,37.2848791 C237.33871,37.9433245 241.819707,38.8385509 245.045441,38.7185386 C248.272797,38.6001482 249.40967,36.9264642 249.946481,33.9375111 C249.980539,33.7428967 249.998378,33.5385515 250,33.3228539 L250,33.2547388 C249.977295,30.1441517 246.753183,25.0549846 244.867045,23.0018025 C242.834946,20.7913071 238.053918,16.250304 236.380234,14.6966322 C234.709794,13.1413386 233.691312,10.9308432 233.691312,10.9308432 C233.691312,10.9308432 234.049727,9.25878098 234.171361,8.18191453 C234.289751,7.10666986 234.049727,5.55461987 232.736079,4.83616831 C231.422432,4.11933853 229.166526,3.47548916 227.239844,2.80406942 C224.669312,1.90722131 223.235652,1.49042209 222.098779,0.891982753 C221.234367,0.436260656 220.81919,0.0145960814 220.327788,0 L220.272648,0 Z" id="Clip-2"></path>
            <path d="M220.272648,0 C220.134796,0.00486536047 219.990457,0.0405446706 219.828278,0.115146865 C218.93143,-0.303274136 217.677789,0.831976641 217.677789,0.831976641 L214.510439,1.25039764 C214.510439,1.25039764 213.19517,0.293543415 212.539968,0.533567865 C211.879901,0.771970528 212.178309,1.54880642 212.178309,1.54880642 L211.639876,1.66881864 C211.639876,1.66881864 209.491009,0.233537303 209.31099,2.20725187 L208.595782,2.86245374 C208.595782,2.86245374 205.785226,2.44565453 206.083635,4.29773508 L204.768365,5.1945832 C204.768365,5.1945832 202.916285,5.25458931 202.497864,6.98665764 L201.424241,8.60195732 C201.424241,8.60195732 200.347375,8.83873819 200.227362,9.67558019 C199.748935,10.2140134 199.092112,10.9908493 199.092112,10.9908493 C199.092112,10.9908493 196.761604,11.647673 197.240031,13.6197657 C196.584829,14.3966016 192.209248,21.7270781 191.443765,22.5850033 C190.428526,23.7202541 188.874855,26.2291583 185.887523,26.1107679 L182.89857,25.9907556 C182.89857,25.9907556 181.821704,25.0339014 181.583301,25.0339014 C181.344898,25.0339014 180.926477,25.5707129 180.926477,25.5707129 L179.072775,24.915511 C179.072775,24.915511 178.834372,23.8986506 177.87914,24.6754865 L176.325468,24.1970594 C176.325468,24.1970594 175.847041,22.9417964 174.891809,23.4802296 C174.471766,23.2434488 173.218125,22.7050155 173.218125,22.7050155 C173.218125,22.7050155 172.501295,21.6265273 172.141258,21.6265273 C171.782843,21.6265273 171.664453,22.1665823 171.664453,22.1665823 L170.049153,21.6265273 C170.049153,21.6265273 169.273939,20.5512826 168.855518,20.5512826 C168.437097,20.5512826 168.257079,21.0897159 168.257079,21.0897159 L166.641779,20.31288 C166.641779,20.31288 165.029723,18.5808116 164.551296,18.6992021 C164.072869,18.8192143 164.134497,20.0144712 164.134497,20.0144712 L163.177642,19.7160624 C163.177642,19.7160624 162.22241,18.0423784 161.50558,18.1623906 C160.787129,18.2824029 160.430335,19.2376353 160.430335,19.2376353 L159.353469,18.9408483 C159.353469,18.9408483 157.499767,16.9671338 156.784559,16.9671338 C156.067729,16.9671338 156.067729,18.2824029 156.067729,18.2824029 L154.214027,18.2824029 C154.214027,18.2824029 152.958764,16.4287005 152.123543,16.6087189 C151.286701,16.7871154 151.406714,17.9223662 151.406714,17.9223662 L149.793036,17.9223662 C149.793036,17.9223662 148.776175,16.0702856 147.700931,16.3103101 C147.28251,16.4870849 147.104113,17.6839635 147.104113,17.6839635 L145.668832,17.6839635 C145.668832,17.6839635 143.815129,15.8902673 143.159928,15.8902673 C142.501482,15.8902673 142.621494,17.0271399 142.621494,17.0271399 L140.531011,17.0855242 C140.531011,17.0855242 139.394139,15.4734681 138.49729,15.5334742 C137.602064,15.5934803 137.602064,16.7871154 137.602064,16.7871154 L136.466813,16.7871154 C136.466813,16.7871154 135.09316,15.4118402 134.134684,15.4734681 C133.179451,15.5334742 133.299464,17.0271399 133.299464,17.0271399 L131.92581,17.2071582 C131.92581,17.2071582 130.368895,15.7734987 129.295272,16.0119013 C128.220027,16.250304 128.818467,17.6839635 128.818467,17.6839635 L127.383185,18.2223968 C127.383185,18.2223968 125.531105,16.7271093 124.752647,17.0271399 C123.977433,17.3255486 124.515866,18.7592082 124.515866,18.7592082 L123.080585,19.4160319 C123.080585,19.4160319 121.110114,18.0423784 119.913235,18.5808116 C118.717978,19.1176231 119.616448,20.4928983 119.616448,20.4928983 L118.179545,21.2097281 C118.179545,21.2097281 117.1043,20.9113193 116.387471,21.0897159 C115.670641,21.2697342 115.133829,22.7050155 115.133829,22.7050155 L114.116969,23.1234365 C114.116969,23.1234365 111.608065,22.404985 111.009626,22.823406 C110.412808,23.2434488 110.949619,24.1370533 110.949619,24.1370533 L108.61749,25.0339014 C108.61749,25.0339014 107.187074,24.5570961 106.765409,24.6754865 C106.34861,24.793877 106.34861,25.630719 106.34861,25.630719 L103.959718,26.5275671 C103.959718,26.5275671 102.584443,25.5707129 101.507577,25.752353 C100.43071,25.9307495 100.670735,27.4244152 100.670735,27.4244152 L99.3554655,27.5444274 C99.3554655,27.5444274 97.14497,26.4091766 96.6065368,26.6475793 C96.0697254,26.885982 96.4881464,28.3212633 96.4881464,28.3212633 L95.2328834,28.559666 C95.2328834,28.559666 93.4408089,27.1860125 92.3655643,27.4844213 C91.2903196,27.7844519 92.123918,29.3365019 92.123918,29.3365019 L91.1086795,29.4565141 C91.1086795,29.4565141 89.438239,27.9028423 88.6597814,28.2596354 C87.8813237,28.6196721 88.4213787,30.3533622 88.4213787,30.3533622 L87.7029271,30.651771 C87.7029271,30.651771 85.9092309,29.1564835 84.5972054,29.5148984 C84.0587721,29.6965385 84.4755714,31.5469973 84.4755714,31.5469973 L83.7003573,31.8454061 C83.7003573,31.8454061 82.1466855,30.23335 81.3098435,30.5917649 C80.8930443,30.7117771 81.2498374,32.8022603 81.2498374,32.8022603 L80.354611,32.9222725 C80.354611,32.9222725 78.8577018,31.6086252 77.9040911,31.9670401 C77.2472675,32.1470584 77.7857007,33.5790962 77.7857007,33.5790962 L76.4104255,34.4159382 C76.4104255,34.4159382 74.7967476,33.2806874 73.9582838,33.6374805 C73.1214418,33.999139 73.8998995,35.1343898 73.8998995,35.1343898 L73.4831003,35.2527802 C73.4831003,35.2527802 72.0461971,34.3559321 71.2109769,34.6559626 C70.3741349,34.9527496 70.7341716,35.7895916 70.7341716,35.7895916 L69.6573051,36.4480371 C69.6573051,36.4480371 68.1636395,35.3744142 67.3851818,35.7312073 C66.6099677,36.091244 66.9067547,37.4048913 66.9067547,37.4048913 L66.1315406,37.6449158 C66.1315406,37.6449158 64.4594784,36.8664581 63.9210451,37.1648669 C63.3826119,37.4632756 63.3826119,38.3001176 63.3826119,38.3001176 L62.1289707,38.6001482 C62.1289707,38.6001482 61.5305314,38.0600932 60.8737077,38.1801054 C60.2152623,38.3001176 59.9168535,39.3153562 59.9168535,39.3153562 L58.6599687,39.6153868 C58.6599687,39.6153868 57.4663336,38.9569413 56.9262786,39.3153562 C56.3910889,39.6753929 55.9710461,40.6306253 55.9710461,40.6306253 C55.9710461,40.6306253 53.2237393,40.572241 52.685306,41.5274734 C51.6781764,41.9540034 51.1754225,41.827504 50.7488926,41.7026264 C50.516977,41.6361331 50.3077665,41.5663963 50.0563896,41.5874795 C49.3411816,41.6458639 48.8027484,42.8427425 48.8027484,42.8427425 C48.8027484,42.8427425 46.7706495,41.9458944 46.4706189,42.3059311 C46.1738319,42.6627242 45.8738014,43.2595417 45.8738014,43.2595417 C45.8738014,43.2595417 44.5569105,42.7211085 43.9017086,43.0811452 C43.2416414,43.4395601 43.0664884,44.0363776 43.0664884,44.0363776 C43.0664884,44.0363776 41.9296158,43.4395601 41.3911826,43.6795845 C40.8543711,43.919609 39.9559012,44.6932013 39.9559012,44.6932013 C39.9559012,44.6932013 38.8806566,43.797975 38.4638574,44.1563899 C38.0438146,44.5164265 37.6853997,45.1132441 37.6853997,45.1132441 C37.6853997,45.1132441 36.5517707,44.2780239 36.191734,44.4547986 C35.8333191,44.634817 35.4165199,45.1732502 35.4165199,45.1732502 C35.4165199,45.1732502 33.9828604,44.4547986 32.966,45.7100616 C31.7691214,45.053238 31.0539134,45.8884582 31.0539134,45.8884582 C31.0539134,45.8884582 29.0947949,44.6202209 28.5806885,45.912785 C28.5806885,45.912785 28.2822797,45.6906002 27.5022002,45.539774 C26.720499,45.3921914 26.3491098,46.2111938 26.3491098,46.2111938 C26.3491098,46.2111938 25.9760988,45.9517079 25.4555052,45.6516773 C24.9349117,45.3548903 24.7484062,46.0992905 24.7484062,46.0992905 L24.1175311,46.1349698 C23.00012,44.9478218 22.4406035,46.0619894 22.4406035,46.0619894 L21.8454078,46.0992905 C20.6582598,44.6850924 20.1733456,46.0246883 20.1733456,46.0246883 C20.1733456,46.0246883 19.9138597,45.9857654 19.8003346,45.9857654 C18.5369627,45.0564816 18.4623605,45.2802881 18.0179909,45.9517079 C15.8220915,46.2111938 8.68136413,44.7986174 7.00768012,44.4629076 C5.06964487,44.0753005 0.684333296,42.1567267 0.03886214,44.2780239 C-0.815819516,47.9773196 12.6482547,55.1521045 18.6245391,57.2425877 C24.5992018,59.3363145 31.3523221,61.3684134 40.8543711,62.3220241 C50.3531766,63.2788783 67.0883948,64.1157203 76.170401,64.4741352 C85.254029,64.8325501 94.0376265,66.6262463 97.9218059,67.4014604 C101.807607,68.1799181 105.871805,72.7809273 107.005434,74.274593 C108.140685,75.7682586 109.335942,77.6803453 111.306413,79.5340476 C110.769601,81.9229396 102.76284,90.1697256 101.267552,91.186586 C99.7738865,92.2018245 98.2218365,94.3555574 97.6233971,95.3091681 C97.0265796,96.2660223 96.5465307,98.9549449 96.011341,100.927038 C95.4729078,102.89913 94.2176448,103.734351 93.6775898,104.152772 C93.1440219,104.571193 92.123918,103.914369 91.6487345,105.229638 C90.4518558,105.171254 88.898184,106.184871 89.316605,107.740164 C89.7950321,106.723304 90.9302829,106.903322 91.4103318,107.261737 C91.3487039,108.216969 92.4255704,107.858555 93.2624124,107.50014 C94.0976326,107.141725 94.2760291,106.543285 94.7544562,106.78331 C95.2328834,107.021713 93.7992238,111.981137 93.7992238,111.981137 C93.7992238,111.981137 93.1440219,112.757973 92.663973,113.41804 C92.1839241,114.073242 93.1440219,116.942183 93.6775898,118.974281 C94.2176448,121.00638 96.011341,123.932084 96.4281403,124.592151 C96.848183,125.247353 99.6538742,126.084195 100.552344,126.265835 C101.449192,126.44261 101.507577,126.144201 101.507577,126.144201 C101.507577,126.144201 103.719694,127.101055 104.616542,126.981043 C105.511768,126.862653 104.374896,124.832175 104.374896,124.832175 C104.374896,124.832175 108.380709,125.487377 109.157545,125.487377 C109.932759,125.487377 110.889613,126.025811 111.428047,125.128962 C112.08487,124.832175 114.056963,125.128962 115.192214,125.487377 C116.327465,125.845792 114.833799,123.755309 113.220121,122.500046 C113.040103,121.42318 111.366419,120.347935 109.51596,120.10791 C109.395948,119.751117 108.260697,119.27269 107.005434,119.451087 C106.467001,118.195824 104.556536,117.779025 104.556536,117.779025 L102.882852,114.731687 C102.882852,114.731687 103.239645,113.53643 103.421285,112.937991 C103.599682,112.341173 103.959718,110.010666 104.256505,108.813787 C104.556536,107.620152 105.153353,106.244877 105.630159,105.289644 C106.108586,104.33279 109.335942,99.730159 110.172784,98.7165422 C111.009626,97.6996819 110.889613,97.6996819 111.548059,97.2212548 C112.204882,96.7444494 114.295366,95.6692048 116.805892,94.5907165 C119.314796,93.5170936 127.503198,88.257639 127.503198,88.257639 L128.398424,88.3176451 C128.398424,88.3176451 128.041631,93.4570875 128.460052,97.0428582 C128.876851,100.628629 133.062683,107.620152 134.256318,109.592245 C135.449953,111.564337 135.689977,111.682728 135.629971,117.897415 C135.571587,124.113724 138.138876,126.44261 141.126207,131.105247 C144.113538,135.766262 143.936763,139.410417 143.698361,140.605674 C143.456715,141.800931 143.578349,143.472993 144.711978,143.773024 C145.84885,144.073054 151.106683,146.641965 152.183549,147.357173 C153.258794,148.075624 154.214027,149.030857 154.692454,148.374033 C155.46929,148.374033 157.322992,149.450899 158.516627,149.450899 C159.713506,149.450899 157.739791,146.043525 157.739791,146.043525 C157.739791,146.043525 161.743983,146.761977 163.657691,147.240404 C165.568156,147.717209 165.746553,147.180398 165.746553,147.180398 C165.746553,147.180398 171.12602,148.015618 171.187647,147.357173 C171.544441,145.985141 166.463382,142.996188 166.463382,142.996188 L166.583395,142.577767 C166.583395,142.577767 168.495481,142.39937 168.735506,141.560907 C167.600255,139.290405 164.194503,139.352033 164.194503,139.352033 C164.194503,139.352033 163.716076,138.8136 160.490342,138.633581 C157.262986,138.453563 156.544534,137.139916 154.214027,134.150963 C151.883519,131.165253 148.776175,119.98952 148.357754,118.017427 C147.939333,116.046956 146.864089,113.774833 146.325655,112.459564 C146.744076,111.624344 146.507296,109.173824 146.507296,106.723304 C146.507296,104.272784 146.864089,103.017521 147.819321,98.5365239 C148.776175,94.0522833 147.79986,89.2939608 147.79986,89.2939608 C147.79986,89.2939608 147.760937,88.3987344 147.642546,88.3371065 C151.821891,87.9786916 159.05506,83.4182271 161.445574,81.5077622 C163.834466,79.592432 168.257079,76.8435033 168.257079,76.8435033 L169.033915,77.5603331 L169.453957,78.3987969 L169.512342,78.3987969 C171.247654,80.9077011 174.413381,83.2982149 174.413381,83.2982149 L174.413381,85.8087409 C174.413381,85.8087409 173.576539,86.5239489 172.919716,87.0039978 C172.26127,87.4808031 172.319655,87.839218 172.501295,88.4976634 C172.381283,89.0344749 171.664453,89.4528959 170.884373,89.8129325 C171.782843,91.0665738 173.454905,89.512902 173.454905,89.512902 C173.454905,89.512902 173.816564,89.512902 174.354997,89.3945115 C174.891809,89.2744993 175.130211,88.6160539 175.488626,88.0808642 C175.847041,87.5408092 176.983914,86.583955 176.983914,86.583955 C176.983914,86.583955 177.222316,87.0623821 177.222316,87.1223882 C177.042298,87.8992241 177.759128,88.3176451 177.759128,88.3176451 C177.759128,88.3176451 177.759128,89.3945115 177.640737,90.2297318 C178.297561,90.0497134 179.11332,89.7513046 179.473356,88.257639 C180.84701,87.7792119 180.149641,85.9871374 180.028007,84.8518866 C179.909617,83.7166359 180.566441,82.3429824 178.715982,80.7293045 C176.86228,79.1156266 176.622255,78.0387602 176.087065,76.7267347 C175.548632,75.4098438 174.591778,74.5146174 174.591778,74.5146174 L174.891809,73.7361598 L174.891809,73.7961659 C178.297561,73.7961659 184.035443,71.4656582 185.827517,70.7488284 C187.619592,70.0319986 189.830087,69.253541 191.263747,68.7767356 C191.323753,69.6735838 192.6374,73.2577326 193.417479,73.9761842 C193.235839,74.274593 193.295845,76.9035094 193.177455,77.2635461 C193.055821,77.6203392 191.800558,78.1587724 191.145356,78.5171873 C190.485289,78.877224 190.248508,80.010853 190.248508,80.010853 C190.248508,80.010853 189.591684,80.0692373 188.274793,80.1908713 C189.173263,81.9229396 191.623783,81.0877194 191.623783,81.0877194 C191.623783,81.0877194 191.623783,81.3261221 190.965338,82.4029885 C192.398997,82.5797633 192.879046,82.2813545 193.475864,81.3861282 C194.731127,81.3261221 194.731127,79.5340476 195.26956,78.5171873 C195.806371,77.500327 196.283177,77.500327 197.060013,75.2314472 C197.83847,72.9593239 196.343183,65.6110078 196.343183,65.6110078 C198.733697,64.2957386 201.424241,59.3963207 202.381095,56.8857946 C203.334706,54.3752686 204.709981,53.2400179 205.965244,52.3431698 C207.220507,51.4463216 208.057349,51.9263705 210.386235,51.9263705 C212.716743,51.9263705 215.525677,50.9678945 216.542538,49.8958934 C218.573015,50.1926804 219.351473,48.8174052 220.365089,48.0421911 C222.817231,48.697393 224.847708,48.8774113 224.847708,48.8774113 C227.656643,49.2958323 231.480816,57.2425877 236.978674,54.5536652 C244.388618,50.9678945 241.938098,48.0421911 241.938098,48.0421911 C241.461292,47.023709 240.026011,45.350025 239.190791,44.3964143 C238.352327,43.4395601 234.946575,37.2848791 234.946575,37.2848791 C237.33871,37.9433245 241.819707,38.8385509 245.045441,38.7185386 C248.272797,38.6001482 249.40967,36.9264642 249.946481,33.9375111 C249.980539,33.7428967 249.998378,33.5385515 250,33.3228539 L250,33.2547388 C249.977295,30.1441517 246.753183,25.0549846 244.867045,23.0018025 C242.834946,20.7913071 238.053918,16.250304 236.380234,14.6966322 C234.709794,13.1413386 233.691312,10.9308432 233.691312,10.9308432 C233.691312,10.9308432 234.049727,9.25878098 234.171361,8.18191453 C234.289751,7.10666986 234.049727,5.55461987 232.736079,4.83616831 C231.422432,4.11933853 229.166526,3.47548916 227.239844,2.80406942 C224.669312,1.90722131 223.235652,1.49042209 222.098779,0.891982753 C221.234367,0.436260656 220.81919,0.0145960814 220.327788,0 L220.272648,0 Z" id="Clip-2"></path>
        </g>
    </g>
</svg>