<?xml version="1.0" encoding="UTF-8"?>
<svg width="250px" height="115px" viewBox="0 0 250 115" version="1.1" xmlns="http://www.w3.org/2000/svg" xmlns:xlink="http://www.w3.org/1999/xlink">
    <!-- Generator: Sketch 47.1 (45422) - http://www.bohemiancoding.com/sketch -->
    <title>dino-bodyshape/sauropod/8</title>
    <desc>Created with Sketch.</desc>
    <defs></defs>
    <g id="Symbols" stroke="none" stroke-width="1" fill="none" fill-rule="evenodd">
        <g id="dino-bodyshape/sauropod/8" fill="#D5D5D5">
            <path d="M166.404246,62.0313225 C170.171969,68.8372509 168.177292,75.7879276 168.177292,75.7879276 C168.177292,75.7879276 169.21111,77.7137697 170.09901,80.4488237 C170.984157,83.1880135 171.501754,87.4766996 171.280124,89.1047736 C171.943639,89.7706159 171.943639,91.4703749 171.943639,91.4703749 C171.943639,91.4703749 171.650426,91.2484274 173.718063,94.6520809 C175.785699,98.0543559 176.377632,103.751926 176.377632,103.751926 C176.377632,103.751926 177.335738,105.895579 177.558746,106.708927 C177.780376,107.523653 181.473765,111.590392 181.989985,112.330676 C182.507583,113.069582 182.434624,113.587919 181.844067,113.884309 C181.527146,114.042995 178.225055,114.896634 175.066282,114.814701 C172.325212,114.743603 169.692062,113.759567 169.21111,113.587919 C168.102956,112.108729 169.285446,109.594244 168.915144,108.115054 C168.725416,107.351499 166.862317,102.42903 165.022566,97.7224485 C163.298274,93.3112453 159.314813,86.070573 158.797215,85.0352779 C157.836356,84.740267 155.767343,83.7035933 153.10915,85.6280567 C150.44958,87.5511416 146.830528,87.698647 145.057481,87.3291942 C143.876368,90.3620162 141.5871,92.2837226 141.5871,92.2837226 C141.5871,92.2837226 140.847872,93.5423438 140.995167,94.6520809 C141.059229,95.1347262 141.477268,97.9681183 140.988852,101.125636 C140.354262,105.228139 138.769362,109.877808 138.851818,110.629539 C139.003243,111.961224 140.18298,111.444265 140.331651,113.144024 C140.478946,114.84654 138.377544,114.623214 134.790881,114.106256 C131.204218,113.589298 129.175775,111.81234 128.659554,110.998992 C128.143333,110.187023 129.029856,108.780896 129.175775,107.523653 C129.324446,106.266411 131.466419,105.451685 131.466419,105.451685 C131.466419,105.451685 131.908304,104.046937 132.425901,103.971116 C133.093547,103.159147 132.796204,101.679957 131.466419,98.2032399 C130.136634,94.7251444 131.61509,90.7314691 131.61509,90.7314691 C131.61509,90.7314691 132.058352,89.472848 132.205647,87.698647 C124.59724,89.1047736 116.619907,85.7755621 116.619907,85.7755621 C116.619907,85.7755621 116.915874,88.8083842 116.990209,90.6584057 C117.063169,92.50567 118.022651,99.7554933 118.096987,101.234683 C118.171323,102.715252 119.206518,105.304179 119.722738,106.413916 C120.238959,107.523653 121.490681,107.522275 123.70934,110.998992 C125.928,114.475709 112.779224,114.328203 111.669693,113.811245 C110.562916,113.292908 111.745406,110.258708 111.523775,108.705076 C111.302144,107.152822 109.750728,103.233589 109.0115,101.087178 C107.312789,102.64081 105.76275,109.446738 107.016823,110.998992 C108.273648,112.552624 108.642574,113.365972 108.642574,113.957372 C108.642574,114.247835 106.100466,115.080772 103.501748,114.993648 C100.784653,114.902555 98.0056716,113.884309 98.0056716,113.884309 C98.0056716,113.884309 97.9313358,112.330676 98.6691874,111.073434 C98.0056716,110.112581 98.5962282,107.449211 99.3340799,106.117527 C100.073308,104.787221 100.590906,102.862757 101.846355,95.6143127 C103.10318,88.3644893 101.69906,82.9660661 101.69906,82.9660661 C101.69906,82.9660661 96.6758867,81.5585609 94.6082501,79.4879706 C79.3171003,77.7137697 78.5039237,81.5836352 65.5036472,83.4111961 C53.9508113,85.0352779 51.7208741,85.3137485 37.7174609,84.1588988 C21.8719487,82.8521328 5.06237411,72.6546193 0.437388238,69.6052297 C-0.367132203,69.0747857 0.042389969,68.5790617 0.824922948,68.9387208 C5.7901946,71.2208034 22.5329585,80.8664117 38.2080448,80.690978 C50.8485655,80.5495068 59.6209502,78.3381492 64.1847618,75.7879276 C68.7815654,73.2192704 76.1628136,67.5910735 79.3850403,64.0041701 C84.0414603,58.820758 91.7895496,55.0075947 93.2784652,53.3036877 C97.2678199,48.7351548 101.098867,45.8236456 107.147599,43.9474316 C115.188255,41.4508676 123.18073,42.045025 131.415485,42.3207361 C146.829151,42.8363159 161.909683,39.2699928 174.18335,29.5911548 C178.865129,25.8966261 181.303068,24.2644164 185.003339,19.6696909 C190.385801,12.9850754 199.048675,3.86179517 215.01573,0.948907423 C230.984162,-1.96535887 241.523327,2.76308644 241.523327,2.76308644 C245.330972,1.79120482 248.137837,7.91888396 248.137837,7.91888396 C248.90735,8.8342448 249.409805,8.86181591 249.753952,9.39669544 C250.095346,9.93157497 250.154539,11.621684 249.453856,11.1805462 C249.288665,11.9911369 248.448946,12.0600646 247.625745,11.7305899 C246.802545,11.398358 245.980722,10.6704807 244.361853,9.94122486 C242.744361,9.21196901 239.604362,8.50890571 238.493454,8.30074383 C237.382547,8.09396051 237.122372,7.35367621 237.122372,7.35367621 C237.122372,7.35367621 232.184547,6.16811849 222.650293,7.12207889 C213.118791,8.07466073 205.335557,14.1968256 200.216023,19.6310914 C193.766704,26.4769979 189.693377,35.5837355 184.858797,43.5559218 C181.174127,49.6316754 175.02261,55.7901423 166.404246,62.0313225 Z" id="Page-1"></path>
        </g>
    </g>
</svg>