<svg id="SvgjsSvg1001" width="288" height="288" xmlns="http://www.w3.org/2000/svg" version="1.1" xmlns:xlink="http://www.w3.org/1999/xlink" xmlns:svgjs="http://svgjs.com/svgjs"><defs id="SvgjsDefs1002"></defs><g id="SvgjsG1008" transform="matrix(1,0,0,1,0,0)"><svg xmlns="http://www.w3.org/2000/svg" width="288" height="288" version="1.0" viewBox="0 0 1280 640"><path d="M920 6372 c-25 -9 -62 -27 -82 -39 -19 -13 -44 -23 -54 -23 -11 0-77 -21 -149 -46 -235 -82 -329 -112 -418 -135 -142 -36 -194 -88 -212 -211
-7 -48 -7 -48 21 -48 23 0 33 -8 49 -38 35 -65 63 -72 278 -72 208 0 235 -5
492 -98 122 -44 318 -87 440 -98 75 -6 83 -9 145 -55 36 -26 74 -63 84 -81 11
-18 45 -60 77 -93 68 -72 103 -127 119 -185 6 -23 27 -131 45 -239 45 -260
133 -516 246 -716 50 -89 274 -364 352 -434 139 -123 349 -245 494 -287 61
-18 64 -28 37 -122 -23 -78 -14 -163 26 -241 l30 -61 -92 0 c-51 0 -136 -7
-188 -15 -56 -9 -168 -15 -273 -15 l-178 0 -42 29 c-52 37 -137 124 -211 218
-37 47 -66 75 -84 79 -15 4 -39 17 -54 30 -53 43 -127 43 -168 -1 l-23 -24 35
5 c48 8 98 -33 98 -81 0 -25 7 -39 28 -54 15 -11 31 -25 35 -30 9 -10 47 -47
84 -82 13 -12 21 -25 18 -28 -8 -14 -143 7 -207 32 -56 23 -76 26 -130 21 -81
-7 -121 -20 -143 -44 -18 -20 -17 -20 24 -20 49 0 76 -12 113 -52 14 -15 33
-28 41 -28 9 0 37 -11 63 -25 34 -18 63 -25 103 -25 64 -1 101 -23 101 -62 0
-18 9 -29 34 -40 23 -12 35 -25 39 -47 4 -19 16 -35 34 -45 16 -7 37 -23 47
-35 l19 -21 -50 0 c-42 0 -54 5 -78 30 -35 37 -88 62 -112 54 -10 -4 -27 -15
-38 -24 -11 -10 -37 -23 -57 -29 -35 -12 -125 -87 -115 -97 3 -3 33 2 68 11
48 13 64 14 67 5 9 -25 43 -50 68 -50 14 0 47 -10 74 -21 31 -13 62 -20 82
-17 18 3 51 -2 73 -10 56 -22 260 -21 335 1 78 22 231 44 400 57 222 17 353
37 489 75 69 19 133 35 144 35 30 0 84 37 105 73 11 18 23 52 27 77 4 25 23
70 43 100 45 71 112 209 112 232 0 22 0 22 120 3 52 -8 131 -15 175 -15 79 0
272 28 350 51 30 9 76 9 190 -1 285 -22 432 -45 535 -83 182 -67 390 -94 578
-76 53 5 107 11 118 14 17 4 23 -1 27 -24 4 -19 14 -32 29 -37 13 -4 46 -27
73 -51 28 -24 67 -48 87 -54 26 -7 43 -19 53 -39 10 -20 28 -33 57 -42 45 -13
98 -71 211 -228 120 -168 238 -279 382 -359 54 -30 255 -189 255 -201 0 -3
-21 -16 -47 -30 -86 -46 -183 -120 -183 -140 0 -10 -9 -21 -20 -25 -27 -9 -60
-53 -60 -81 0 -27 6 -29 47 -14 l28 10 -30 -25 c-16 -15 -53 -46 -82 -71 -31
-27 -61 -44 -77 -44 -38 0 -125 -19 -181 -40 -62 -23 -364 -38 -476 -24 -40 5
-50 2 -79 -22 l-33 -28 54 -11 c36 -7 54 -15 54 -25 1 -24 15 -41 47 -55 l31
-12 -44 -30 c-24 -17 -59 -33 -77 -36 -44 -9 -88 -41 -107 -77 -8 -16 -15 -31
-15 -35 0 -3 28 -5 63 -5 39 -1 69 -6 81 -15 28 -21 85 -19 129 5 30 16 48 19
92 14 62 -8 72 -25 28 -48 -16 -8 -38 -25 -50 -38 -27 -29 -57 -108 -41 -108
29 0 226 65 243 80 32 28 61 40 98 40 19 0 40 7 48 16 7 8 44 36 83 61 39 25
93 65 121 89 39 35 57 44 86 44 26 0 44 8 63 26 14 15 26 31 26 35 0 5 10 9
22 9 15 0 84 62 225 202 111 111 204 200 205 197 2 -2 18 -23 36 -47 43 -55
396 -789 415 -862 12 -48 12 -69 -1 -160 l-15 -105 -121 -179 -121 -179 -138
-49 c-83 -28 -156 -48 -182 -48 -26 0 -47 -6 -55 -15 -7 -8 -21 -15 -32 -15
-35 0 -86 -28 -129 -72 l-42 -43 64 -5 c50 -4 63 -8 62 -20 -3 -19 15 -20 232
-19 118 0 182 5 210 15 22 7 49 14 60 14 11 0 42 8 68 18 38 14 60 34 108 93
33 41 74 81 91 90 19 10 42 38 62 75 27 52 35 59 64 62 24 2 47 16 77 46 47
47 49 58 61 261 6 94 4 105 -26 189 -17 48 -29 94 -26 101 3 8 -4 25 -16 40
-26 33 -246 616 -287 761 -17 60 -31 132 -31 158 0 71 -18 121 -64 173 l-40
45 55 47 c180 154 194 168 210 212 9 26 14 62 11 88 -4 42 -13 52 -193 229
-182 178 -190 187 -240 286 -65 127 -192 332 -281 455 -37 51 -68 97 -68 102
0 5 25 15 55 24 30 8 80 22 111 31 64 17 229 22 350 10 71 -8 91 -6 155 14 75
22 137 58 199 115 53 49 100 71 206 100 108 29 167 64 205 119 45 68 220 163
374 204 225 60 958 89 1420 56 554 -39 971 -120 1660 -322 456 -133 808 -510
920 -985 l23 -100 -44 -121 c-164 -441 -488 -774 -919 -944 -98 -39 -104 -40
-295 -51 -107 -7 -258 -17 -335 -22 -77 -5 -210 -14 -295 -19 -85 -5 -222 -14
-305 -20 -82 -6 -220 -15 -305 -20 -85 -5 -220 -14 -300 -20 -80 -5 -224 -14
-320 -20 -96 -6 -209 -15 -250 -20 -273 -34 -635 -108 -618 -126 3 -2 198 9
434 25 653 46 978 61 1324 61 300 0 702 17 950 41 588 55 1085 401 1364 946 8
17 23 77 31 132 71 477 -127 980 -504 1280 -117 93 -528 349 -796 496 -466
255 -833 409 -1415 593 -133 42 -521 137 -665 162 -66 11 -169 30 -230 40 -60
11 -153 24 -205 30 -52 6 -129 15 -170 20 -41 5 -156 17 -255 25 -99 9 -286
31 -415 50 -129 19 -316 46 -415 60 -99 14 -218 33 -264 41 -62 10 -170 14
-415 14 -397 0 -569 -11 -821 -51 -196 -31 -352 -50 -561 -68 -127 -11 -448
-61 -549 -86 -33 -8 -125 -30 -205 -49 -80 -20 -210 -56 -290 -82 -80 -25
-166 -52 -191 -60 -98 -30 -464 -186 -630 -270 -96 -47 -237 -123 -314 -169
-151 -89 -263 -147 -366 -190 -56 -24 -78 -27 -169 -27 -86 -1 -116 4 -165 22
-85 33 -165 89 -211 152 -137 181 -199 349 -224 605 -15 161 -61 374 -102 474
-76 187 -251 392 -437 513 -57 37 -111 70 -120 73 -54 17 -71 28 -81 54 -17
39 -39 43 -167 31 -114 -11 -200 -5 -336 22 -96 19 -119 19 -177 -2z m1423
-3589 c-13 -2 -33 -2 -45 0 -13 2 -3 4 22 4 25 0 35 -2 23 -4z m4913 -287 c29
-27 35 -38 29 -56 -7 -23 -8 -23 -22 -4 -19 25 -55 94 -49 94 3 0 21 -15 42
-34z" transform="matrix(.1 0 0 -.1 0 640)" fill="#d8d8d8" class="color000 svgShape"></path></svg></g></svg>